/* XPM */
static char *result[] = {
/* columns rows colors chars-per-pixel */
"32 32 120 2 ",
"   c #2E2E1B",
".  c #302F1E",
"X  c #373D14",
"o  c #383E15",
"O  c #31311E",
"+  c #2F2B26",
"@  c #312D27",
"#  c #353522",
"$  c #3B3B23",
"%  c #37322B",
"&  c #3A352F",
"*  c #3F3932",
"=  c #423D36",
"-  c #443F38",
";  c #3B4116",
":  c #3F4518",
">  c #3F4221",
",  c #40461B",
"<  c #434A1B",
"1  c #404026",
"2  c #444528",
"3  c #55592C",
"4  c #464235",
"5  c #4A4637",
"6  c #4D4C33",
"7  c #464139",
"8  c #4B453D",
"9  c #4E493E",
"0  c #504F35",
"q  c #504C3C",
"w  c #595C34",
"e  c #55533B",
"r  c #5B5A3D",
"t  c #5C602F",
"y  c #5E6134",
"u  c #656A34",
"i  c #686D34",
"p  c #62633D",
"a  c #6A6D3E",
"s  c #6D723C",
"d  c #72783E",
"f  c #4E4941",
"g  c #524C43",
"h  c #544E49",
"j  c #575146",
"k  c #595545",
"l  c #5C5944",
"z  c #565149",
"x  c #5B554B",
"c  c #5E594C",
"v  c #5F5951",
"b  c #615F46",
"n  c #615B4E",
"m  c #625C53",
"M  c #655F59",
"N  c #626244",
"B  c #6C6D46",
"V  c #65624C",
"C  c #68664C",
"Z  c #6D6C4C",
"A  c #6D7040",
"S  c #727543",
"D  c #767B41",
"F  c #73754C",
"G  c #76784B",
"H  c #7B7D4D",
"J  c #666154",
"K  c #696355",
"L  c #6E6A55",
"P  c #676158",
"I  c #6B655B",
"U  c #6E685E",
"Y  c #716F52",
"T  c #716C5E",
"R  c #737255",
"E  c #787755",
"W  c #7A7A55",
"Q  c #77745B",
"!  c #79765E",
"~  c #7D7C5B",
"^  c #6F6960",
"/  c #736D62",
"(  c #777263",
")  c #7A7465",
"_  c #7E7B62",
"`  c #7C766A",
"'  c #7F796C",
"]  c #7F7970",
"[  c #807E5F",
"{  c #817E64",
"}  c #817B6E",
"|  c #847D72",
" . c #7C804B",
".. c #7E8154",
"X. c #7F8058",
"o. c #80815B",
"O. c #838363",
"+. c #87896C",
"@. c #868175",
"#. c #888277",
"$. c #868179",
"%. c #888278",
"&. c #7C8AA2",
"*. c #8C9E9A",
"=. c #A6B09E",
"-. c #829CB4",
";. c #8B9EB5",
":. c #829CBB",
">. c #89A0A8",
",. c #98A6A7",
"<. c #91A1AE",
"1. c #86A0BF",
"2. c #92A3BB",
"3. c #829EC5",
"4. c #889FCA",
"5. c #86A4C6",
"6. c #8AA3C2",
"7. c #87A2CE",
"8. c #8BA1CA",
"9. c #86A1D1",
/* pixels */
"=.,.<.;.:.3.5.7.9.9.9.9.9.8.;.&.2.8.2.2.2.2.<.*.>.-.-.-.:.:.6.8.",
"..{ } R O.@.O.+.| | | | %.| } x $.| %.| | | { E { } Q [ | } O.$.",
"` ' } L ~ @._ X.} } } } | } ) n | } | | } } R T } } I R | { o.} ",
"` _ ` K ^ @.O.` [ [ } } } } ) n | | } | } } } } [ ` I I %.{ _ O.",
"! G Q J T } ~ ! [ D ! ) { T / n } } ` / ) ( / ! G T K T | Q ) H ",
"a i k a S C c l b s b j z n x - x m v v x x b s u r a S C n c b ",
"H S Z G ~ W ~ ' { d / } } } } / ] } ` ] M n | [ F Y F ~ W _ ` } ",
"} W ' } } ` _ ] } N ( | } } } } } } } } / M | { W } } } { ~ } ` ",
"O.W } } } ` ! } ` p ) | } } } } } ` } ` T K #.[ ) } ' ' ) ) ' ` ",
"~ Q } W ` ` ) ` ) N } | } } } } ) ) ` ` I V } W ) [ ! ` ` ` ` ) ",
"K K Z d Z n B S V e b K I M m n n n m m x 5 n K K S S C V S B n ",
"( Q [ Z p { ~ [ V 4 M / / / M f / T / / U U ) / _ W w E _ o.~ 0 ",
"} ) I z g | ` | ( z } } | } } n | | | | } | } } U M - / ' ' | v ",
"` ) T T g m / ` / / } } } } ` n | | } | } } } ) / / c h U ` ` I ",
"/ / / T x ` ^ m T T ( ) ) } ) n #.} } } } T / T ( / c / / m I / ",
"c x x x f x x z g f n M m m n q K I K M M n n x x x q z n z 9 9 ",
"= 8 m I M m x x ^ h n / ^ U U K U / U / n = % - m U I m n z ^ n ",
"- I ) } } } ^ / | I ^ %.| | | } | | | } K = - I } } } } U ^ | / ",
"m I } } } ) n M } M ^ | | } } } ` ` } } I j m I } } } / m M } ^ ",
"/ I / / / ^ U I T n U | } } } } ` ` ` ` K M / K U T / U U I T m ",
"x x f f z z h x x f j M I M m M m m m M j g n j 9 q n k j x j 9 ",
"/ I U P h M ^ ^ ^ U T ^ / / K 8 / / ^ n = n p p n n p m K Y U I ",
"} } } ) n ` } } } } } ) ) M x f / ( } / j ) F ! } T Z | { [ } } ",
"U / / ^ x / ) / / / / ^ U I M f x M U M I T U T T L k } T R T Q ",
"P K I I h I ^ U I L m m n m n f M n h z n M I Z C m j / U L B B ",
"f f f f - 8 j h g f 7 - - 7 - - - 8 - = = 9 e w 0 e y k e g e t ",
"I m m m m m m m m h @ + = h v v x f h m - z V y r r b b n m n 3 ",
"I m m v v m v n v z % & g c v x v f h n 9 x m r n n n n b n b 2 ",
"m x n x z z x x x f = f f z z z g - f h 4 j b e x k x j j z j = ",
"f f 8 9 8 8 8 8 9 7 & 7 = * * 7 - - - = % 2 9 5 q 0 8 q q q 4 $ ",
"@ $ # # . # % # $ #   O +     . #   . #     = o = , , $ , , >   ",
", > ; , o , , ; < : X : : o , X , : : < ; X , , X , o < , , < , "
};
