/* XPM */
static char *_d8232887ad34634bb70ae5daaa98763dpQd4QZZkRtZQmsF[] = {
/* columns rows colors chars-per-pixel */
"32 32 256 2 ",
"   c black",
".  c #010101",
"X  c gray1",
"o  c #030404",
"O  c #040404",
"+  c gray2",
"@  c #060606",
"#  c #070707",
"$  c #0C0C0C",
"%  c #0D0E0E",
"&  c #0E0E0E",
"*  c gray6",
"=  c #101111",
"-  c gray7",
";  c #131616",
":  c gray8",
">  c #151515",
",  c #161616",
"<  c gray9",
"1  c #191919",
"2  c gray10",
"3  c #1B1B1B",
"4  c gray13",
"5  c #222222",
"6  c #252525",
"7  c gray15",
"8  c #272727",
"9  c #2F2525",
"0  c #272B2B",
"q  c #282828",
"w  c gray16",
"e  c #292B2B",
"r  c #2A2A2A",
"t  c gray17",
"y  c #282C2C",
"u  c #292C2C",
"i  c #292D2D",
"p  c #2A2E2E",
"a  c #2B2E2E",
"s  c #2C2C2C",
"d  c #2C2D2D",
"f  c #2D2D2D",
"g  c #2E2D2D",
"h  c #2C2E2E",
"j  c #2D2E2E",
"k  c #2D2F2F",
"l  c gray18",
"z  c #2E2F2F",
"x  c #2F2F2F",
"c  c #332121",
"v  c #342121",
"b  c #342222",
"n  c #352323",
"m  c #312727",
"M  c #362424",
"N  c #2C3030",
"B  c #2C3131",
"V  c #2D3131",
"C  c #2E3030",
"Z  c #2F3030",
"A  c #2F3131",
"S  c #2D3232",
"D  c #2E3232",
"F  c #2E3333",
"G  c #2F3333",
"H  c #2F3434",
"J  c gray19",
"K  c #313131",
"L  c gray20",
"P  c #303434",
"I  c #343434",
"U  c #353535",
"Y  c gray21",
"T  c #373737",
"R  c gray22",
"E  c #393939",
"W  c #3A3A3A",
"Q  c gray24",
"!  c #3E3E3E",
"~  c #621111",
"^  c #6D1010",
"/  c #6E1010",
"(  c #6E1111",
")  c #4E2020",
"_  c #7B2121",
"`  c #693131",
"'  c #5B5C5C",
"]  c #5D5D5D",
"[  c gray37",
"{  c #5F5F5F",
"}  c #606060",
"|  c #6A6A6A",
" . c #6D6868",
".. c #6D6D6D",
"X. c #6D6E6E",
"o. c #777373",
"O. c #7B7B7B",
"+. c gray50",
"@. c #B70202",
"#. c #B70303",
"$. c #B80303",
"%. c #BA0202",
"&. c #902121",
"*. c #912121",
"=. c #922020",
"-. c #922121",
";. c #932121",
":. c #922222",
">. c #DD0000",
",. c #DF0000",
"<. c #E00000",
"1. c #E10000",
"2. c #E20000",
"3. c #E30000",
"4. c #E20101",
"5. c #E10303",
"6. c #E50000",
"7. c #E60000",
"8. c #E20505",
"9. c #E30707",
"0. c #E30808",
"q. c #E30909",
"w. c #E21010",
"e. c #E41111",
"r. c #E31616",
"t. c #E61515",
"y. c #E61616",
"u. c #E71C1A",
"i. c #E52B2B",
"p. c #E52C2C",
"a. c #E73030",
"s. c #E73131",
"d. c #E53838",
"f. c #E53939",
"g. c #A87575",
"h. c #E94646",
"j. c #EA4747",
"k. c #E14F4F",
"l. c #E75C5C",
"z. c #EB5959",
"x. c #EC5A5A",
"c. c #E95E5E",
"v. c #E95F5F",
"b. c #EA6060",
"n. c #EB6060",
"m. c #E86262",
"M. c #E86363",
"N. c #EA736E",
"B. c #7F8080",
"V. c #818282",
"C. c gray51",
"Z. c #838383",
"A. c #848484",
"S. c #888383",
"D. c #8B8787",
"F. c #888989",
"G. c #898989",
"H. c #888B8B",
"J. c #8B8B8B",
"K. c #8E8E8E",
"L. c #909090",
"P. c #979797",
"I. c gray65",
"U. c #AAAAAA",
"Y. c #ACACAC",
"T. c #AFAFAF",
"R. c #B0ACAC",
"E. c #AFB2B2",
"W. c gray69",
"Q. c #B1B1B1",
"!. c #B2B2B2",
"~. c #B4B4B4",
"^. c gray71",
"/. c #B6B6B6",
"(. c #B8B9B9",
"). c gray73",
"_. c #BBBBBB",
"`. c gray",
"'. c #C08E8E",
"]. c #E38383",
"[. c #E38484",
"{. c #E88E8E",
"}. c #E89797",
"|. c #E29F9F",
" X c #E2A8A8",
".X c #E5A8A8",
"XX c #E3B6B6",
"oX c #E4B7B7",
"OX c #EBB0B0",
"+X c #D2CBCB",
"@X c #D2CCCC",
"#X c #DFCACA",
"$X c #DACECE",
"%X c #CFD1D1",
"&X c #D0D0D0",
"*X c #D2D2D2",
"=X c gray84",
"-X c #D7D7D7",
";X c #DFD3D3",
":X c #DCD5D5",
">X c #DDD6D6",
",X c #DCD7D7",
"<X c #D7D9D9",
"1X c #D8D8D8",
"2X c #D8D9D9",
"3X c gray85",
"4X c #D9DBDB",
"5X c #DADADA",
"6X c gray86",
"7X c #DADCDC",
"8X c #DBDCDC",
"9X c #DADEDE",
"0X c gainsboro",
"qX c #DDDCDC",
"wX c #DDDDDD",
"eX c #DEDEDC",
"rX c #DFDEDD",
"tX c #DCDEDE",
"yX c #DCDFDF",
"uX c #DDDFDF",
"iX c gray87",
"pX c #DEDFDF",
"aX c #E0C8C8",
"sX c #E1C9C9",
"dX c #E0CACA",
"fX c #E1CACA",
"gX c #E1D5D5",
"hX c #DDE0E0",
"jX c #DEE0E0",
"kX c #DEE1E1",
"lX c #DEE2E2",
"zX c gray88",
"xX c #E1E1E1",
"cX c black",
"vX c black",
"bX c black",
"nX c black",
"mX c black",
"MX c black",
"NX c black",
"BX c black",
"VX c black",
"CX c black",
"ZX c black",
"AX c black",
"SX c black",
"DX c black",
"FX c black",
"GX c black",
"HX c black",
"JX c black",
"KX c black",
"LX c black",
"PX c black",
"IX c black",
"UX c black",
/* pixels */
"1 1 1 1 1 1 1 1 1 1 1 1 1 1 1 1 1 1 1 1 1 1 1 1 1 1 1 1 1 1 1 1 ",
"l l l l l l C C l l l l C l p l l l l l C l l l l C l l l l l l ",
"t l l 9 n n c c c n M n n c c n n n n c n n n n n n c c m l l l ",
"T l p ~ #.#.#.#.#.#.#.$.$.#.#.#.#.#.#.#.#.#.#.#.$.#.#.$._ C l 7 ",
"E l p ^ ,.2.2.2.2.2.2.2.2.2.2.2.2.2.2.2.2.2.2.2.2.2.2.6.&.C l 7 ",
"E l p ^ ,.2.2.2.2.2.,.2.2.2.2.2.2.2.2.2.,.,.2.2.2.2.2.2.&.C l 7 ",
"E l p ^ ,.2.2.2.2.,.2.2.2.2.2.2.2.,.,.,.,.,.2.2.2.2.2.2.&.H l 7 ",
"E J p ^ ,.2.2.2.2.,.,.2.q.p.z.v.l.z.p.q.2.,.2.2.2.2.2.2.&.C l 7 ",
"E l y ^ ,.2.,.,.2.,.2.d.}.dX>XS. .+XdX}.d.2.2.2.2.2.2.2.&.C l 7 ",
"E p 0 ^ ,.2.,.,.,.q.M.#XhX1XV.& o ..1XhX#Xn.q.2.2.2.2.2.&.C l 0 ",
"E l p ^ ,.2.,.,.2.M.;XtX1XV.&   l U.1X1XtX;Xn.2.2.2.2.2.&.C l 7 ",
"E l p ^ ,.2.2.2.d.#XtX1XV.&   l !.1XA.| *XhX#Xd.2.2.2.2.&.C l 7 ",
"E l p ^ ,.2.2.9.{.tXtXL.&   < I.tXV.& # [ *XhX{.9.2.2.2.&.C l 7 ",
"E l p ^ ,.2.2.i.dX1XtX/.T   # } O.&     # [ %XdXi.2.,.2.&.C l 7 ",
"E l 0 ^ ,.2.,.z.>XF.T.xX/.T   # #   t J   # ' +Xz.,.,.2.&.C l 7 ",
"E l p ^ ,.2.2.v.D.& l T.xX!.5     < I.).Q   o o.v.,.,.2.&.C l t ",
"E l p ^ ,.2.2.v.S.-   l T.Z.&     # } *X).Q l R.n.2.2.2.&.C l 7 ",
"E l t ^ ,.2.2.j.$XB.-   5 &   t l   # [ *X`.).gXj.,.2.2.&.C l 7 ",
"E l p ^ ,.2.2.r.oX<X+.-     l !./.t   # ..1XhXXXr.,.,.2.&.C l 7 ",
"E l 0 ^ ,.2.2.2.N.tX=X+.- l !.1XF.<   l U.8XtXN.2.,.,.2.&.C l 7 ",
"J l p ^ ,.2.,.,.u..XtX=XP./.1XF.<   l T.tXtX.Xu.2.2.2.2.&.C l t ",
"l l p ^ ,.2.,.,.2.a.oXtXtXtXK.<   l T.tXtXoXa.2.2.2.2.2.&.C l l ",
"t l p ^ ,.2.,.,.2.2.a.|.,X9XF.; l E.hX>X|.a.2.2.2.2.2.2.&.C l t ",
"t l p ^ ,.2.,.,.2.2.2.w.k.[. Xg.'.OX].k.w.2.2.2.2.2.2.2.&.C l 1 ",
"T l p ^ ,.2.2.2.2.2.,.,.2.9.e.y.y.e.9.2.2.2.2.2.2.2.2.2.&.C J 1 ",
"T l p ^ ,.2.2.2.2.2.,.,.2.,.2.2.2.2.2.2.2.2.2.2.2.2.,.2.&.C l 1 ",
"T l p ^ ,.2.2.2.,.,.,.,.,.2.2.2.2.2.2.2.,.2.,.2.,.,.,.2.&.C l 1 ",
"T l 0 ^ 2.2.2.2.2.2.2.2.2.2.2.2.2.2.2.2.2.2.2.2.2.2.2.6.&.C l 1 ",
"T l t ) &.&.&.&.&.&.&.&.&.&.&.&.&.&.&.&.&.&.&.&.&.&.&.&.` C l 1 ",
"T l J C C C C C C C C H C C C C C P C H C C C P C C C C C l J 1 ",
"J 7 7 t t 7 7 t t t 7 t t t t t 7 t 7 t t t t t 7 7 t t t t 0 < ",
"& # # # # # # # # # # # # # # # # # # # # # # # # # # # # # #   "
};
