/* XPM */
static char *result[] = {
/* columns rows colors chars-per-pixel */
"32 32 196 2 ",
"   c #1F170B",
".  c #131314",
"X  c #1D1E1E",å
"o  c #261F0B",
"O  c #251D10",
"+  c #27200C",
"@  c #2C220E",
"#  c #31250F",
"$  c #352F0B",
"%  c #3D340E",
"&  c #37300C",
"*  c #2E2410",
"=  c #27221C",
"-  c #322611",
";  c #352912",
":  c #3B2C14",
">  c #3E2C1C",
",  c #3D301C",
"<  c #3F3116",
"1  c #1E1F20",
"2  c #242424",
"3  c #2B2B2B",
"4  c gray20",
"5  c #393429",
"6  c #550904",
"7  c #451E0F",
"8  c #690202",
"9  c #710000",
"0  c #790B04",
"q  c #60130A",
"w  c #41350F",
"e  c #41380E",
"r  c #402F16",
"t  c #592814",
"y  c #423214",
"u  c #443911",
"i  c #4F3D11",
"p  c #453419",
"a  c #4A3519",
"s  c #4C381A",
"d  c #483614",
"f  c #5A3E1F",
"g  c #52391B",
"h  c #632E17",
"j  c #622D1A",
"k  c #77301D",
"l  c #4F3F2B",
"z  c #4C3B26",
"x  c #533C24",
"c  c #503F2B",
"v  c #5D3F21",
"b  c #543F3C",
"n  c #5B4C05",
"m  c #56490A",
"M  c #5F5007",
"N  c #5E4518",
"B  c #714C0E",
"V  c #784D0B",
"C  c #645605",
"Z  c #64530A",
"A  c #69570B",
"S  c #6D5D09",
"D  c #7F5C03",
"F  c #705E0A",
"G  c #6F4E10",
"H  c #61461B",
"J  c #714B10",
"K  c #794F14",
"L  c #6D600D",
"P  c #73610B",
"I  c #786717",
"U  c #77681C",
"Y  c #796A1D",
"T  c #594124",
"R  c #51402B",
"E  c #4B453B",
"W  c #574632",
"Q  c #5D4933",
"!  c #564438",
"~  c #634322",
"^  c #6A4624",
"/  c #6E4926",
"(  c #6D4728",
")  c #714B27",
"_  c #754C29",
"`  c #7A4E2A",
"'  c #714323",
"]  c #7D512C",
"[  c #624934",
"{  c #634D39",
"}  c #745032",
"|  c #785338",
" . c #6B5A3B",
".. c #746021",
"X. c #74613E",
"o. c #78743C",
"O. c #77733B",
"+. c #474748",
"@. c #474848",
"#. c #4B4B4B",
"$. c #534F49",
"%. c #5D5448",
"&. c #545452",
"*. c #5A5957",
"=. c #5C5B5A",
"-. c #685847",
";. c #645648",
":. c #615F5C",
">. c #665753",
",. c #755B45",
"<. c #7E6C48",
"1. c #686458",
"2. c #756357",
"3. c #7B765F",
"4. c #5D5F60",
"5. c #5C6161",
"6. c #666563",
"7. c #6A6663",
"8. c #6C6966",
"9. c #6B6C6C",
"0. c #666768",
"q. c #746E6B",
"w. c #726B66",
"e. c #757663",
"r. c #73706E",
"t. c #7D736D",
"y. c #6F6F71",
"u. c #6F7071",
"i. c #707070",
"p. c #840201",
"a. c #920A0A",
"s. c #911008",
"d. c #821C1C",
"f. c #81371D",
"g. c #98231A",
"h. c #973B3A",
"j. c #815C04",
"k. c #815212",
"l. c #925B14",
"z. c #856303",
"x. c #886503",
"c. c #8E6C02",
"v. c #846C1F",
"b. c #84542E",
"n. c #89562F",
"m. c #845631",
"M. c #8A5630",
"N. c #8D5933",
"B. c #815739",
"V. c #945C35",
"C. c #995F37",
"Z. c #985833",
"A. c #9A6037",
"S. c #9D6239",
"D. c #827D3C",
"F. c #A3653C",
"G. c #AA693F",
"H. c #914242",
"J. c #8E6144",
"K. c #8A6948",
"L. c #966A4C",
"P. c #9D6843",
"I. c #93744C",
"U. c #9C6F52",
"Y. c #8C705F",
"T. c #90725E",
"R. c #AD6B40",
"E. c #A06642",
"W. c #A8714D",
"Q. c #B77245",
"!. c #BA7346",
"~. c #BF7849",
"^. c #A76651",
"/. c #B47954",
"(. c #8B6D6D",
"). c #897263",
"_. c #A37C63",
"`. c #C07748",
"'. c #C47A4A",
"]. c #CA7D4D",
"[. c #D07F4F",
"{. c #858136",
"}. c #CF804F",
"|. c #CF8250",
" X c #DB8753",
".X c #DF8855",
"XX c #D78858",
"oX c #D88755",
"OX c #E88F58",
"+X c #E38C58",
"@X c #EA915C",
"#X c #F5975D",
"$X c #C69375",
"%X c #F29B66",
"&X c #E49667",
"*X c #FCA169",
/* pixels */
": : : ; : : : ; : : ; : : : : : ; : ; : : : : : : ; : ; : : : ; ",
"r : y < < r : > r r : r : : y y r r r < : r : r r < r y r r r r ",
"+ < d u e u w $ e u % % % y y e % w y y $ % w % y $ % % y d - p ",
"+ : L c.x.x.x.z.x.x.z.z.z.j.D D D D D D D j.j.D j.D j.j.z.J ; p ",
"- @ S V z l l l c l c c R R R W W W W W W W Q Q Q [ { { U N - : ",
"; o C B $.9.9.0.0.9.0.9.0.=.@.+.@.#.=.0.9.9.9.9.y.y.y.y.O.N - : ",
"< + C B &.i.y.y.i.i.i.i.:.3 1 2 2 X 2 4 &.9.u.u.y.y.r.y.o.i * r ",
"< : C B &.i.y.y.i.i.i.t./.J.! ! #.X 3 2 2 &.u.u.y.y.y.y.o.i o : ",
"; p P B &.i.y.i.u.i.i._.#X*X/.| 3 . 1 2 X 4 0.i.y.y.i.i.o.i @ r ",
"@ y P B &.i.r.u.i.9.r.W.|.%X@XE.x > = X X 3 0.i.i.y.i.y.D.i + a ",
"+ : P B *.y.i.i.i.i.(.K.` XX%X+X!.S.( = . 3 0.i.i.i.i.y.D.i @ a ",
"+ @ C J *.i.i.i.u.i.$X&X'.OX+X}.].S.m.o . #.9.r.y.i.i.y.D.i * a ",
"@ + C J *.y.i.i.u.r.T.B.'. X X!.!.R.^ O 2 0.r.u.i.i.i.y.D.i @ r ",
"- o n J *.y.i.i.r.i.r.E. X+X'.S.S.N.T , &.u.i.i.i.i.i.y.D.i @ r ",
"* + n G *.i.i.i.i.u.r.XX X}.S.b.R.[.A.T :.r.i.i.y.i.y.y.D.i @ : ",
"* + M J *.i.i.i.i.u.r._.L.n.] S.`.R.] N R %.7.y.i.i.q.y.D.i @ r ",
"O - M J *.i.y.i.y.y.y.y.w.J.S.G.N._ v ~ ) ^ Q ;.0.u.u.u.D.i @ : ",
"+ - M G *.i.i.r.y.y.y.1.L.G.F.N.) ^ m.V.V.Z.V.` Q 6.u.u.D.i @ r ",
"o o n J *.i.i.i.u.u.1.Q A.G.S.) _ C.C.` ) M.n.b.^ Q 9.u.D.i @ p ",
"o o n J *.i.i.i.i.9.-.~ _ n._ m.C.C.m.v ) M.n.` ^ T 8.u.D.i @ a ",
"# o n J *.i.i.i.i.8.} ~ ~ ] N.S.C.C.^ v C.F.Z.M.^ p 8.i.D.i @ r ",
": o m J *.y.i.i.i.2._ ~ ) A.G.S.N.` x | F.F.n.n.~ , 0.i.D.i @ : ",
": @ n K *.y.i.y.y.,.` H b.m./ M.^ x E w.^.Z.b.V.g 5 0.i.D.i @ r ",
"; : Z K :.i.i.9.7.m.` ^ V.N.f ~ j b #.*.(.g.f.M.p E r.i.D.i @ : ",
"; y A K 4.y.i.i.2.n./ ) S.S.] ' s.h.4.4.>.a.p.j : $.i.i.I.u + < ",
"* y A K :.y.i.r.L.m.] ] n.V.V.S.Z.k h.H.d.p.9 6 ; %.i.y.D.m * : ",
"o ; Z K :.i.i.r.^.R.F.n.n.G.!.G.Q.M.h 0 p.9 6 7 s -.i.y.D.i + y ",
"o * Z K :.i.y.y.q.T.).L.G.Q.R.!.!.F.) t 9 q g ~ _ 2.u.y.D.i * p ",
"o o n k.1.e.e.e.e.e.e.e.I.I.I.I.I.I.K. .[  .K.<.3.e.e.e.{.i * a ",
"o o n l.v.v.Y U I U U U U U U I U U Y Y Y I U Y I U U U I d * a ",
"; o : a d r # # # @ - - * ; ; # @ - - * # # ; # # # # @ @ ; * s ",
": # # ; ; : # + + o - : ; ; : ; # : : * o @ : : ; ; o o o : ; a "
};
