/* XPM */
static char *_9874566eb7f4e2bd81de03e3755f1efeiYZwqYgJ022pAuj[] = {
/* columns rows colors chars-per-pixel */
"32 32 147 2 ",
"   c #26260E",
".  c #2D2D14",
"X  c #32321A",
"o  c #3B3B1F",
"O  c #332C24",
"+  c #342F29",
"@  c #3C3C22",
"#  c #3B342C",
"$  c #3D3C29",
"%  c #3E3932",
"&  c #433D2D",
"*  c #403730",
"=  c #433D32",
"-  c #433E38",
";  c #3F4021",
":  c #414125",
">  c #44442B",
",  c #49492E",
"<  c #444233",
"1  c #4A4435",
"2  c #4C4B34",
"3  c #46433A",
"4  c #4B443C",
"5  c #4E4B3B",
"6  c #534D35",
"7  c #51473D",
"8  c #524C3C",
"9  c #53523C",
"0  c #5B553D",
"q  c #5F5A3D",
"w  c #635E3E",
"e  c #4C4741",
"r  c #4E4B42",
"t  c #504644",
"y  c #524D43",
"u  c #594F45",
"i  c #544F49",
"p  c #555244",
"a  c #5A5544",
"s  c #5C5A45",
"d  c #56534A",
"f  c #5B564B",
"g  c #5D5B4D",
"h  c #4E525B",
"j  c #5D5552",
"k  c #5E5B52",
"l  c #555459",
"z  c #635D44",
"x  c #61574C",
"c  c #625B4C",
"v  c #635C54",
"b  c #685E52",
"n  c #665C5A",
"m  c #5F614C",
"M  c #676245",
"N  c #696444",
"B  c #64614D",
"V  c #69644C",
"C  c #6F694E",
"Z  c #736D4B",
"A  c #656253",
"S  c #6A6455",
"D  c #666853",
"F  c #6D6954",
"G  c #666259",
"H  c #6C655B",
"J  c #67695C",
"K  c #6D6A5C",
"L  c #726D54",
"P  c #726B5D",
"I  c #6E715E",
"U  c #757255",
"Y  c #797354",
"T  c #74725C",
"R  c #7A745C",
"E  c #7D785E",
"W  c #6E6560",
"Q  c #6D6B62",
"!  c #706763",
"~  c #736C62",
"^  c #796F65",
"/  c #746E6B",
"(  c #6D756B",
")  c #747364",
"_  c #7B7464",
"`  c #767862",
"'  c #7C7A64",
"]  c #75726A",
"[  c #7C756A",
"{  c #72796B",
"}  c #7C7A6C",
"|  c #6C707B",
" . c #757170",
".. c #7A7772",
"X. c #747C73",
"o. c #7C7A73",
"O. c #747379",
"+. c #757B7B",
"@. c #7C7C7B",
"#. c #817D5E",
"$. c #807766",
"%. c #827D64",
"&. c #80776B",
"*. c #827B6D",
"=. c #807771",
"-. c #837D72",
";. c #887F76",
":. c #867C7A",
">. c #7F806E",
",. c #7D8274",
"<. c #7A817B",
"1. c #868164",
"2. c #84826D",
"3. c #8A846D",
"4. c #848274",
"5. c #898374",
"6. c #8E8974",
"7. c #82827C",
"8. c #8B837B",
"9. c #8B887C",
"0. c #91887E",
"q. c #7B7F88",
"w. c #7D8384",
"e. c #7D818A",
"r. c #818283",
"t. c #8E8483",
"y. c #838881",
"u. c #8C8980",
"i. c #818689",
"p. c #838989",
"a. c #908780",
"s. c #87908F",
"d. c #8F998E",
"f. c #929D8F",
"g. c #848B95",
"h. c #959F97",
"j. c #939B9D",
"k. c #97A09A",
"l. c #9BA49E",
"z. c #9FA99E",
"x. c #999FAC",
"c. c #9DA4AA",
"v. c #9FA5B1",
"b. c #A1ABA2",
"n. c #A3ACAB",
"m. c #ADB7AE",
"M. c #A4ABB1",
/* pixels */
"m.b.l.k.l.l.k.v.n.c.c.c.x.c.x.g.M.x.b.n.l.z.z.f.z.f.h.h.g.j.n.x.",
"{ { ,.( X.w.<.w.+.+.q.q.q.q.| h i.+.w.y.<.,.,.( { { ( X.<.p.w.w.",
"{ 4.,.K ) 7.,.{ <.r.:.@.@.r.O.l @.@.o.X.X.{ { T ' ,.K J 9.@.Q @.",
"T ` T B I 5.4.o.-.o.../ / @. .j 7.8.o.} -.' ' _ ` ' D D 9.4.] u.",
"E Y Z N U 2.R ` *.&.*.&.&.*.] x &.;.^ _ _ P $.#.R L C T } ' _ *.",
"Y N z w C C 0 0 z z a a p a u = g S x z a 6 V z z w z C M s s 0 ",
"Y Z Z Y %.1.Y E 3.$.R $.$.$.*.$.^ *.^ $.C z %.#.Y Z R #.#.%.%.%.",
"#.E #.#.#.1.E %.R L R *.3.*.*.*.=.5.*.5.F b 6.%.%.%.#.Y #.%.E %.",
"1.U 1.1.1.U T 2.%.0 ' 2.2.*.' -.[ -.[ -.K A 6.' $.%.2.E U 3.R ' ",
"1.Y >.U T 3.>.T 5.m } 2.4.} [ } ..o.o.,.K A 6.} _ *.D 5.' F ' >.",
"V m L ` D g A ` Q ; A A A A g d f k f k 5 3 A g F ) ) B m >.F 9 ",
"I ` I D m 4.2.' l ; A K { Q G i Q Q K ) J J } Q ] } 9 { 7.} { 9 ",
">.>.P a 5 } -.4.] k [ 4.5.-.-.k 9.5.-.4.5.4.9.4.K ~ = H } } 4.g ",
"T T P F 5 c S *.[ K =.=.-.} =.x 4.-.' } *.*.[ ^ K A v a c 4.) H ",
"P %.P L f 5.R x ) P &.&.[ [ &.x 5.5.-.*.*.*.^ ^ =._ u *.$.x P ] ",
"a x a x & u 7 x 1 - x v v v n = b S S b b x u x x 4 7 u u x & 7 ",
"# t v H H P 7 t ^ u x ^ ! H ^ n S P ~ H v O * * x W n n n t ! n ",
"- v [ ;.=.=.~ [ 8.b ^ 0.8.;.a.;.0.*.;.8.^ # 7 ^ =.:.:.[  .! t.=.",
"S P &.;.^ ^ v b :.b ! 8.=.[ -.&.&._ *.*.v = c ~ [ &.=.H n n / ! ",
"^ S H _ ^ &.S S [ c H 5.;.$.*.$.$.$.;.*.H P $.H ^ ^ *.~ S P P b ",
"x 1 1 8 7 c a p y & 7 F P H S c S a s c 6 p x 6 1 2 a a 7 x 0 2 ",
"^ S P F y c S F ~ S S P ) P c 1 P P P a & s B z z z s V b Z C b ",
"[ _ -.&.g [ 4.-.5.*.*.[ ^ K a < R ;.5.H a _ _ ' *.%.F 3.%.%.3.%.",
"^ ! [ P u ^ [ W ~ [ ) P K ~ v i a x H ^ P ] B _ F K a ' R L _ Y ",
"v W Q W d G Q ] J Q G G G G k e W n r d f K Q K K B p T I T P C ",
"e e e e % e i r i r # + % 3 e % 3 3 - e # 3 d f < y a B 2 2 9 s ",
"W j k k G j n k l i + + % i k j i e d k 3 d A A d c B B c p D a ",
"Q f v k G k G j k i # % e f G k k e d k 5 k G g A g a p B B A ; ",
"A p g d f i d p d p ; e r h f l d ; 3 d ; l m 5 9 s s 9 s 9 s @ ",
"p 2 r r 5 2 5 5 2 3 % ; < ; ; ; < $ ; 2 + ; 5 5 9 9 9 2 2 2 9 o ",
"X X X X . X X X @ X   X .   O . X X O @   X @ ; o o X ; o ; ; . ",
"; ; ; ; @ 2 ; ; , > @ > , ; ; ; ; 2 ; , ; ; ; ; ; ; ; , ; > , ; "
};
