/* XPM */
static char *result[] = {
/* columns rows colors chars-per-pixel */
"32 32 80 1 ",
"  c #454951",
". c #4F4F55",
"X c #4D535A",
"o c #525156",
"O c #53555C",
"+ c #595659",
"@ c #55595E",
"# c #5B595E",
"$ c #635E5F",
"% c #4C5660",
"& c #4F5963",
"* c #565C64",
"= c #5C5D63",
"- c #555E69",
"; c #625E62",
": c #5E6066",
"> c #56616D",
", c #5D636A",
"< c #5F6771",
"1 c #636266",
"2 c #6C6566",
"3 c #6A6867",
"4 c #63656B",
"5 c #6A666B",
"6 c #65696D",
"7 c #6B6A6C",
"8 c #726C6D",
"9 c #70706F",
"0 c #656A72",
"q c #6B6D73",
"w c #686F79",
"e c #716D72",
"r c #786E70",
"t c #6E7075",
"y c #6E737A",
"u c #747275",
"i c #7A7475",
"p c #7D7976",
"a c #74757A",
"s c #797679",
"d c #76797E",
"f c #7C7A7C",
"g c #827675",
"h c #827C7C",
"j c #897E7D",
"k c #84807F",
"l c #8C847F",
"z c #93827D",
"x c #747981",
"c c #7B7D82",
"v c #787F88",
"b c #827E81",
"n c #7F8186",
"m c #7D838B",
"M c #7F8890",
"N c #848284",
"B c #8B8484",
"V c #8C8887",
"C c #85858A",
"Z c #8A8689",
"A c #8C8A8B",
"S c #938684",
"D c #998782",
"F c #938986",
"G c #9B8B87",
"H c #938C8C",
"J c #9A8E8A",
"K c #95908F",
"L c #9B918D",
"P c #828890",
"I c #8C8E93",
"U c #918F93",
"Y c #8B9197",
"T c #949192",
"R c #9B9493",
"E c #9C999C",
"W c #A29692",
"Q c #A49995",
"! c #A99D99",
"~ c #ACA29E",
/* pixels */
"ju839uaNdulKRAH~kklFWjlWGDFlGgzz",
"cur83uudnVEEIKNKRKL~LBBJQVJLDSFD",
"00feqytdcCAAquuuCuklu328k1u8$$$r",
"fcNNka9CYTTIaapkFhBAiuhBHhFBi88j",
"dkufcNfAAAPVVVVKLHCVHibVbZSGF8Sh",
">74,tfkkd9uuVCkVafuaN15i755ru$e;",
"9ppuNNpfd9pplkklkNkNFiNVcbbbJjDS",
"afANkpfplvdfknkkNncfu6iiZrbhijrh",
">0Nf7793atydtauuu0a7=O17a=i;+;+=",
"fCRZfiiffkCCFVnkKCZHNfBHFfKbbbGb",
"aqafNcfltipfANnCNftfh7j7;;1Baebr",
",10tCu6i,740pw9u6:,5i=h1OOo7;;r+",
"iucbIbuki39kVklTANNNAiFNBbbJSZHb",
"e8xcfs77ttyknnnCNakf6=:qSab5=;;g",
"14wq56157<,tywq9u6t9=X*1u=g= .O;",
"aabbbcsbp97fauadCkVKHbVUUbKbbagg",
"6tfuuaqd0<,<twxy6:qpa,tu:,,i5o8;",
"<quiut,y>&XX6><<:@:<k:7,.=X11oi=",
"BpfkNNfNku31atfffpfCHnANnACVHSJS",
"4quf076tcd96>6<7y46t:476a3u11;;5",
"-,0fq:6qy6,6--,,q:6q:,73x;b;5;#8",
"fhufntacnq3ficccnpnntpNCUATJSbeD",
"q757y6*nu66tiwaa7,1:w6yt050eq;52",
"63339:@x,,,taaaa,473uuNue00q54ri",
"0787Mq3IIYPvxfxcvbUbbbEbbbZesirc",
"X@7:4**yxw0x0056x5bbbeexee0;;=;5",
"O*55#:=txw-y457qr5xbbbbbsrbrr8;5",
"yfiq1,4xPvxxsaaCbbbUbbbbbbSbbbbb",
",,41::*d-<440<0e0e0ex;;511;;222$",
"1,4,,4-cw0<-5;0a5ca0xxxreergggg;",
"add06q6mvxqesayxabbcbbbbbbbbbbxe",
"446,6:>0x0;0qwq050e5e0=bx5x;O#O4"
};
