/* XPM */
static char *b983c37e6ea44660e2cd2a2f56451f15Gar7QMZ8YsZK7RY8[] = {
/* columns rows colors chars-per-pixel */
"32 32 243 2 ",
"   c #020203",
".  c #0B0101",
"X  c #020C02",
"o  c #0B0C01",
"O  c #01030B",
"+  c #0A000C",
"@  c #020D0C",
"#  c #0C0B0A",
"$  c #130201",
"%  c #1B0201",
"&  c #130A02",
"*  c #180A05",
"=  c #031608",
"-  c #191300",
";  c #1A1A00",
":  c #161507",
">  c #020412",
",  c #010C14",
"<  c #01031C",
"1  c #020C1C",
"2  c #0A0718",
"3  c #140617",
"4  c #011314",
"5  c #021C1E",
"6  c #081818",
"7  c #141518",
"8  c #2C0C00",
"9  c #260606",
"0  c #370802",
"q  c #291707",
"w  c #371904",
"e  c #2B0D14",
"r  c #261B11",
"t  c #3A1E17",
"y  c #192703",
"u  c #012516",
"i  c #192819",
"p  c #1B311A",
"a  c #2C2903",
"s  c #352704",
"d  c #2B3300",
"f  c #352614",
"g  c #2A2C11",
"h  c #070C24",
"j  c #150B27",
"k  c #00142B",
"l  c #0A1727",
"z  c #19152A",
"x  c #011D32",
"c  c #001B3B",
"v  c #071833",
"b  c #161735",
"n  c #0E0C31",
"m  c #2C1A2B",
"M  c #03232B",
"N  c #072829",
"B  c #1C262D",
"V  c #1C3227",
"C  c #022C3B",
"Z  c #062636",
"A  c #182735",
"S  c #07373A",
"D  c #15383B",
"F  c #23242B",
"G  c #2B252F",
"H  c #24332C",
"J  c #262636",
"K  c #342733",
"L  c #343A30",
"P  c #4A0707",
"I  c #461A02",
"U  c #521210",
"Y  c #6C0700",
"T  c #651907",
"R  c #771404",
"E  c #4B2603",
"W  c #542B02",
"Q  c #5D2A03",
"!  c #5A2405",
"~  c #473E03",
"^  c #442816",
"/  c #433A19",
"(  c #58381B",
")  c #5A310D",
"_  c #682705",
"`  c #792B00",
"'  c #6D3708",
"]  c #7D3C02",
"[  c #7A3704",
"{  c #743F15",
"}  c #44382D",
"|  c #37460B",
" . c #0F433A",
".. c #1B4938",
"X. c #28472B",
"o. c #2B523D",
"O. c #2F4D36",
"+. c #376839",
"@. c #455308",
"#. c #555200",
"$. c #5C5906",
"%. c #564607",
"&. c #685A03",
"*. c #734209",
"=. c #576406",
"-. c #786C05",
";. c #737405",
":. c #6C710E",
">. c #4D5239",
",. c #6D5533",
"<. c #517931",
"1. c #616C2A",
"2. c #181D43",
"3. c #012C43",
"4. c #052747",
"5. c #043243",
"6. c #083648",
"7. c #12354E",
"8. c #013C53",
"9. c #073856",
"0. c #09355A",
"q. c #282843",
"w. c #332B47",
"e. c #31384B",
"r. c #073C63",
"t. c #483F54",
"y. c #07454B",
"u. c #174648",
"i. c #024A5D",
"p. c #054757",
"a. c #06545C",
"s. c #1B5B40",
"d. c #2B4C4A",
"f. c #2D554A",
"g. c #356648",
"h. c #2B6958",
"j. c #306950",
"k. c #034D6B",
"l. c #044666",
"z. c #06546C",
"x. c #024A75",
"c. c #035372",
"v. c #02557A",
"b. c #015B7C",
"n. c #085777",
"m. c #1A5974",
"M. c #255265",
"N. c #03647C",
"B. c #066679",
"V. c #13667A",
"C. c #3A6D6B",
"Z. c #414048",
"A. c #476847",
"S. c #44744A",
"D. c #4D664E",
"F. c #6C6858",
"G. c #487362",
"H. c #7A6760",
"J. c #705041",
"K. c #862900",
"L. c #883B02",
"P. c #963B00",
"I. c #903B14",
"U. c #A53006",
"Y. c #C63E00",
"T. c #8C4202",
"R. c #83450A",
"E. c #984904",
"W. c #975300",
"Q. c #8C4A12",
"!. c #A84903",
"~. c #A65605",
"^. c #B75706",
"/. c #A75A11",
"(. c #B55910",
"). c #827606",
"_. c #906A00",
"`. c #B8670A",
"'. c #C45A02",
"]. c #D45C00",
"[. c #D94E00",
"{. c #EB5A01",
"}. c #CD6402",
"|. c #C86707",
" X c #DB6300",
".X c #D56806",
"XX c #D9710C",
"oX c #D96816",
"OX c #E56A03",
"+X c #FC6C03",
"@X c #F26A00",
"#X c #EB7202",
"$X c #EA750A",
"%X c #F27302",
"&X c #FD7403",
"*X c #FE7C02",
"=X c #FD7E0B",
"-X c #F6760B",
";X c #F37511",
":X c #E57119",
">X c #CE6921",
",X c #7C810B",
"<X c #5D873B",
"1X c #799434",
"2X c #3F8165",
"3X c #478367",
"4X c #898705",
"5X c #969608",
"6X c #858B1C",
"7X c #A99D07",
"8X c #B38D00",
"9X c #9BA109",
"0X c #B9A60C",
"qX c #ADA80C",
"wX c #939B22",
"eX c #8FB02B",
"rX c #AFB321",
"tX c #C39E12",
"yX c #E48D00",
"uX c #F8870B",
"iX c #F79B00",
"pX c #FA8210",
"aX c #EA8F16",
"sX c #C6BB05",
"dX c #BAC80E",
"fX c #A8C22D",
"gX c #CCC406",
"hX c #D6C607",
"jX c #D8D303",
"kX c #D0CC13",
"lX c #E8D903",
"zX c #F4DE03",
"xX c #E7E403",
"cX c #FAE801",
"vX c #FFF302",
"bX c #F4FE01",
"nX c #FAFB07",
"mX c #FFFE15",
"MX c #005681",
"NX c #0C6383",
"BX c #056789",
"VX c #126587",
"CX c #0B6692",
/* pixels */
"v.BXN.i.3.,   : o.3X3X<.qXlXgXsXeXf.c 9.n.m.G.S.d.f ] ].=X-X.X.X",
"> 5 8.c.l.9.l O O 4 o.G.h.<X7XjXzXxXeXg.C 3.p.a.h.j.g.} ` }.#X;X",
"!.! 3 > u N C C l . . 6 X.g.h.g.6XhXvXnXfX+.3.Z S u.h.g...B w Q ",
"*X%X}.' & O O O X 4   O 3.6.V ..f.X.;.sXcXcXrXS.4.Z 4.u.h.C.f.u ",
"OX=X*XuX#XP.8   O o N i.b.BXc.S p .. .H 1.0XvXnXdX<XS c 6.u.g.G.",
"^.^..X;X&X=X$X!.f 1 Z c.BXN.V.CXb.5.p H H p =.0XxXxXkX1X .x Z u.",
"OXoXoX}.XX#X$XpX@X^.} 0.n.CXCXN.NXNXk.C p i > i &.6X5X0XgX1Xu.M ",
"}.-X+X@X$X$X#X+X;X*X&X'.%.D c.BXVXN.N.n.a.S @ + O & %.$.#.;.wX1.",
"T ^.*X*X;X$X%X;X%X#XXXXX;X].*.D 9.8.B.B.k.p.7.4 .   X 3 d ; r %.",
"6.3 R [.+X=X-X%X:X;X%X#XoXoXOXOX] q k 9.k.a.y.9.3.@ O +   , @ o ",
"BXB.8.1 U Y.+X;X&X@X@XOX XOXOX.X|.].` . h M Z C x C l 2 y @.Z 4.",
"= y.x.CXi.= w K. X#XpX*X.X/./.'.}./.~.!.K.0 .   X o 1 O o _.hX6X",
"-.gX4X .v.v.9.k . E T.`.#X+X]./.E.(.'.^.~.T._ q >   X X ; 5XjXbX",
"kXnXnXlX4XL 0.y.7.k   8 ' T.E.^.].E.' P.'.W.{ L.U.T   d %.qXxXvX",
"; &.gXvXvXgX:.D 5.6.v < O # * q E T.(.) q L.'.] s K.P.T a d 0XzX",
"O <   y $.5X7X;.| S 5.D 6 , O .     % I ) . * R.~.) 9 ! ! e #.9X",
"6 S 9.Z . . : q y : > Z M l 5 .   ..J.U * 8 o . o _ _ a * e 8 & ",
"5 k.v.a.p.M O > . 3 E 0 i i > +   I D.j.J.^ q 3   O . 8 w w # O ",
"M l.n.N.BXv.p.6 O C M.,.*.W.).d O 9 Y 8 N o.G.L q X   O   $ 8 - ",
"  O 8.n.V.NXNXi.8.u v MXC.,.|.uX8X| @ + O   o X.g.>.g . O O . . ",
"  ` I.m 0.N.N.BXb.l.S 1 k k.V.F.aXiX7X$.o o 9 % 9 } S.A.f $     ",
"  - ~.{.U.K 0.b.N.N.z.6.M + 7 x.NXH.XXyX7X=.r e P P P ^ D.D.F X ",
"  O . _ !.'.P.! 1 5.p.a.k.5.X . 2 l.CXF.>XyX8X=.; 0 P 0 P L o.d.",
"sX$.X & % $ ( ^.^._ 3 c 5.y.8.Z 1 . 4 n.VXF.>XiX0X#.r O . Y K.g ",
"mXnXjX&.7   . + t E.'.L.* 1 @ N M 7 .   x v.M.>.].aXtX#.  O % 0 ",
",XjXbXbXlX-.o   . > y Q.oXP.e     , 1 O   . x r.D ) ^.8X4X@.    ",
"p Z 1XxXnXnXsX4Xw 0 0 3 B *.|.R.%   O   : * . $ M h 6 I T._.-.s ",
"B b < O ~ qXlXcXdX#.r e % b V *.~.' % . # e E s I w 3 <   9 s &.",
". * # n > > / 5XlXlXsX5Xa 9 0 t f ( R._ o > $ E *.L.!.[ f X   . ",
"3 O   > @ 4     | 4X-.4X).6 > 3 % 4.x s ! 8 2 > : ( _ Q.[ ^ 3 # ",
"l w.q.e.Z.Z.e.z < h 2 < v z 3 r 6 7 b n b h l J B b A k 2.w.F l ",
"z B H G w.w.G l z z j b j 6 z v h z j 6 7 z l m J J F G K A J z "
};
