/* XPM */
static char *_e6582b45010491ceea32553883ab7916tUAC079nz5A2mhF[] = {
/* columns rows colors chars-per-pixel */
"32 32 256 2 ",
"   c gray1",
".  c gray2",
"X  c #060606",
"o  c #0C0C0C",
"O  c gray8",
"+  c #151515",
"@  c #161616",
"#  c gray9",
"$  c #181818",
"%  c #191919",
"&  c gray10",
"*  c #1B1B1B",
"=  c gray11",
"-  c #1D1D1D",
";  c gray12",
":  c #202020",
">  c gray13",
",  c #222222",
"<  c #232323",
"1  c gray14",
"2  c #252525",
"3  c gray15",
"4  c #272727",
"5  c #282828",
"6  c gray16",
"7  c #2A2A2A",
"8  c gray17",
"9  c #2C2C2C",
"0  c #2D2D2D",
"q  c gray18",
"w  c #2F2F2F",
"e  c gray19",
"r  c #313131",
"t  c #323232",
"y  c gray20",
"u  c #343434",
"i  c #353535",
"p  c gray21",
"a  c #373737",
"s  c gray22",
"d  c #393939",
"f  c #3A3A3A",
"g  c gray23",
"h  c #3C3C3C",
"j  c gray24",
"k  c #3E3E3E",
"l  c #3F3F3F",
"z  c gray25",
"x  c #414141",
"c  c gray26",
"v  c #434343",
"b  c #444444",
"n  c gray27",
"m  c #464646",
"M  c gray28",
"N  c #494949",
"B  c gray29",
"V  c #4C4C4C",
"C  c gray30",
"Z  c #4E4E4E",
"A  c gray31",
"S  c #515151",
"D  c gray32",
"F  c #535353",
"G  c gray33",
"H  c gray34",
"J  c #585858",
"K  c #5B5B5B",
"L  c gray36",
"P  c #5D5D5D",
"I  c #5F5F5F",
"U  c #606060",
"Y  c #626262",
"T  c gray39",
"R  c #646464",
"E  c #656565",
"W  c #676767",
"Q  c DimGray",
"!  c #6A6A6A",
"~  c gray42",
"^  c #6C6C6C",
"/  c #6D6D6D",
"(  c gray43",
")  c #6F6F6F",
"_  c gray44",
"`  c #717171",
"'  c #727272",
"]  c gray45",
"[  c #747474",
"{  c gray46",
"}  c #767676",
"|  c #777777",
" . c gray47",
".. c #797979",
"X. c #7B7B7B",
"o. c #7C7C7C",
"O. c gray49",
"+. c #7E7E7E",
"@. c gray50",
"#. c #808080",
"$. c #818181",
"%. c gray51",
"&. c #838383",
"*. c #848484",
"=. c gray52",
"-. c #868686",
";. c gray53",
":. c #888888",
">. c #898989",
",. c gray54",
"<. c #8B8B8B",
"1. c #8D8D8D",
"2. c #8E8E8E",
"3. c gray56",
"4. c #929292",
"5. c #939393",
"6. c gray58",
"7. c #959595",
"8. c gray59",
"9. c #979797",
"0. c gray60",
"q. c #9A9A9A",
"w. c #9B9B9B",
"e. c gray61",
"r. c #9D9D9D",
"t. c gray62",
"y. c #9F9F9F",
"u. c #A0A0A0",
"i. c gray63",
"p. c gray64",
"a. c #A5A5A5",
"s. c gray65",
"d. c gray66",
"f. c #A9A9A9",
"g. c gray67",
"h. c #AEAEAE",
"j. c #B1B1B1",
"k. c black",
"l. c black",
"z. c black",
"x. c black",
"c. c black",
"v. c black",
"b. c black",
"n. c black",
"m. c black",
"M. c black",
"N. c black",
"B. c black",
"V. c black",
"C. c black",
"Z. c black",
"A. c black",
"S. c black",
"D. c black",
"F. c black",
"G. c black",
"H. c black",
"J. c black",
"K. c black",
"L. c black",
"P. c black",
"I. c black",
"U. c black",
"Y. c black",
"T. c black",
"R. c black",
"E. c black",
"W. c black",
"Q. c black",
"!. c black",
"~. c black",
"^. c black",
"/. c black",
"(. c black",
"). c black",
"_. c black",
"`. c black",
"'. c black",
"]. c black",
"[. c black",
"{. c black",
"}. c black",
"|. c black",
" X c black",
".X c black",
"XX c black",
"oX c black",
"OX c black",
"+X c black",
"@X c black",
"#X c black",
"$X c black",
"%X c black",
"&X c black",
"*X c black",
"=X c black",
"-X c black",
";X c black",
":X c black",
">X c black",
",X c black",
"<X c black",
"1X c black",
"2X c black",
"3X c black",
"4X c black",
"5X c black",
"6X c black",
"7X c black",
"8X c black",
"9X c black",
"0X c black",
"qX c black",
"wX c black",
"eX c black",
"rX c black",
"tX c black",
"yX c black",
"uX c black",
"iX c black",
"pX c black",
"aX c black",
"sX c black",
"dX c black",
"fX c black",
"gX c black",
"hX c black",
"jX c black",
"kX c black",
"lX c black",
"zX c black",
"xX c black",
"cX c black",
"vX c black",
"bX c black",
"nX c black",
"mX c black",
"MX c black",
"NX c black",
"BX c black",
"VX c black",
"CX c black",
"ZX c black",
"AX c black",
"SX c black",
"DX c black",
"FX c black",
"GX c black",
"HX c black",
"JX c black",
"KX c black",
"LX c black",
"PX c black",
"IX c black",
"UX c black",
/* pixels */
"% % % % % % % % % % % % % % % % % % % % % % % % % % % % % % % % ",
"q q q q q q q e q q q q e q q q q q q q q q q q q e q q q q q q ",
"7 q q 4 4 4 < 4 < 4 4 4 4 4 < 4 4 4 4 < 4 4 4 4 4 4 < < 7 q q q ",
"a q q = # % % % % % % % % % % % % % % % % % % % % % % # 7 e q 4 ",
"d q q = # % % % % % % % % % % % % % % % % % % % % % % # q e q 4 ",
"d q q = % % % % % % % % % % % % % % % % % % % % % % # # q e q 4 ",
"d q q = % % % % # % % % % # % % % % % % % % % % % % % # q e q 4 ",
"d e q = % % % % % # % % % % % % % % % % % % # % % % % # q e q 4 ",
"d q 7 % % % # 7 D < # % % % % % % % % % % # < I q # % # q e q 4 ",
"d q 7 = % % % e Q T 4 # % % % % % % % % # 4 ` o.j = % # q e q 4 ",
"d q q = % # < I E } E q # # % % % % % % 7 Q =.o.} 4 # # q e q 4 ",
"d q q = % # j } =.} #.=.N = # # # # % v o.=.=.w.1.M # # q e q 4 ",
"d q q = # < J o.#.} o.e.i.E = 7 j 4 H >.1.#.=.9.w.` < # q e q 4 ",
"d q q = # < E ` o.` #.w.d.X.q >.=.a E 1.1.#.#.4.>.) < # q e q 4 ",
"d q 7 = # < ` #.o.E o.w.i.Z v d.X.% v >.1.o.` 4.w.} < # q e q 4 ",
"d q 7 = # < E X.#.} =.w.s.=.>.>.4.T ` 1.1.>.#.9.9.) < # q e q 7 ",
"d q q = % % e Q ) T } w.d.h.4.M I 1.w.1.1.} } =.#.d % # q e q 4 ",
"d q 7 = % % % j J T X.1.=.4.E a M #.=.` #.o.` Q N % % # q e q 4 ",
"d q q = % % % % j I } v H e.s.E } i.=.M j X.) M % # % # q e q 4 ",
"d q 7 = % % % % = v D e 1.j.9.e.1.X.w.} q H Z = # % % # q e q 4 ",
"e q 7 % % % % % = H T Z } e.` s.1.v >.T M E Z % % % % # q e q 7 ",
"q q q % % % % % % M E X.T M N d.e.a d D ` ) M # % % % # q e q q ",
"7 q q = # % % % # e a v q # q ) I 4 # 4 d a a # % % % # q e q 7 ",
"7 q q = # % % % % # # % % % # % # # % % % # # % % % % # q e q % ",
"a q q = % % % % % % % % % % % # % % % % % % % % % % % # q e e % ",
"a q 7 = % % % % % % % % % % % % % % % % % % % % % % % # q e q % ",
"a q q = % % % % % % % % % % % % % % % % % % % % % % % # q e q % ",
"a q 7 % # # # # # # # # # # # # # # # # # # # # # # # # q e q % ",
"a q 7 4 q q q q q q q q q q q q q q q q q q q q q q q q a e q % ",
"a q e e e e e e e e e e e e e e e a e e e e e e e e e e e q q % ",
"e 4 4 7 7 4 4 7 7 7 4 7 7 7 7 7 4 7 4 7 7 7 7 7 4 4 7 7 7 7 7 # ",
"o . . . . . . . . . . . . . . . . . . . . . . . . . . . . . .   "
};
