/* XPM */
static char *_1ef7c70b2a14c98dee6ec26f055ac07hRPJgBONghIDvUhs[] = {
/* columns rows colors chars-per-pixel */
"32 32 256 2 ",
"   c #060606",
".  c #0C0C0C",
"X  c gray9",
"o  c #1B1616",
"O  c #171817",
"+  c #1C1D16",
"@  c #151618",
"#  c #171818",
"$  c #191919",
"%  c #241112",
"&  c #2B1010",
"*  c #301010",
"=  c #322A0F",
"-  c #35340C",
";  c #3D360C",
":  c #3C390D",
">  c #232215",
",  c #2C2B13",
"<  c #342F10",
"1  c #323111",
"2  c #252525",
"3  c #2C2C2C",
"4  c #323232",
"5  c #393939",
"6  c #450707",
"7  c #440C07",
"8  c #460808",
"9  c #4A0909",
"0  c #550505",
"q  c #590606",
"w  c #520806",
"e  c #540808",
"r  c #630404",
"t  c #6E0402",
"y  c #700302",
"u  c #7C0301",
"i  c #4F2D06",
"p  c #42360F",
"a  c #403D0E",
"s  c #474407",
"d  c #4D4905",
"f  c #43420B",
"g  c #4D4B0C",
"h  c #5D4503",
"j  c #504C06",
"k  c #50470E",
"l  c #564D0E",
"z  c #575404",
"x  c #5A5506",
"c  c #5F5C05",
"v  c #54520E",
"b  c #5E5908",
"n  c #474310",
"m  c #604E0A",
"M  c #7A4700",
"N  c #7A4D01",
"B  c #615B06",
"V  c #68560A",
"C  c #665B0D",
"Z  c #695E0D",
"A  c #7D5501",
"S  c #705B05",
"D  c #666105",
"F  c #6C6406",
"G  c #676209",
"H  c #6C620C",
"J  c #776205",
"K  c #716C02",
"L  c #7A6804",
"P  c #70640C",
"I  c #7B6108",
"U  c #7A6E0C",
"Y  c #777104",
"T  c #7B7405",
"R  c #7E7903",
"E  c #797108",
"W  c #840101",
"Q  c #890000",
"!  c #930000",
"~  c #846605",
"^  c #846E04",
"/  c #8A6B05",
"(  c #866E08",
")  c #946F04",
"_  c #837205",
"`  c #8D7505",
"'  c #857D04",
"]  c #8D7B00",
"[  c #8A7108",
"{  c #957105",
"}  c #937D02",
"|  c #9B7803",
" . c #878104",
".. c #898204",
"X. c #8F8901",
"o. c #978602",
"O. c #9D8603",
"+. c #918A03",
"@. c #9A8C00",
"#. c #9C9403",
"$. c #9C9105",
"%. c #9A9203",
"&. c #A58402",
"*. c #A58502",
"=. c #A58703",
"-. c #AE8302",
";. c #A48C02",
":. c #A88A00",
">. c #A88A03",
",. c #BA8703",
"<. c #B28803",
"1. c #BE8B03",
"2. c #A09A01",
"3. c #A39C02",
"4. c #B39703",
"5. c #B59903",
"6. c #A5A000",
"7. c #AEA702",
"8. c #B2A200",
"9. c #C09102",
"0. c #C29402",
"q. c #C3A201",
"w. c #C4A301",
"e. c #C5A401",
"r. c #C6A401",
"t. c #CBA101",
"y. c #CFA002",
"u. c #CEA500",
"i. c #CAA901",
"p. c #CBA901",
"a. c #CBAA01",
"s. c #CCAA01",
"d. c #CCAB01",
"f. c #D8B400",
"g. c black",
"h. c black",
"j. c black",
"k. c black",
"l. c black",
"z. c black",
"x. c black",
"c. c black",
"v. c black",
"b. c black",
"n. c black",
"m. c black",
"M. c black",
"N. c black",
"B. c black",
"V. c black",
"C. c black",
"Z. c black",
"A. c black",
"S. c black",
"D. c black",
"F. c black",
"G. c black",
"H. c black",
"J. c black",
"K. c black",
"L. c black",
"P. c black",
"I. c black",
"U. c black",
"Y. c black",
"T. c black",
"R. c black",
"E. c black",
"W. c black",
"Q. c black",
"!. c black",
"~. c black",
"^. c black",
"/. c black",
"(. c black",
"). c black",
"_. c black",
"`. c black",
"'. c black",
"]. c black",
"[. c black",
"{. c black",
"}. c black",
"|. c black",
" X c black",
".X c black",
"XX c black",
"oX c black",
"OX c black",
"+X c black",
"@X c black",
"#X c black",
"$X c black",
"%X c black",
"&X c black",
"*X c black",
"=X c black",
"-X c black",
";X c black",
":X c black",
">X c black",
",X c black",
"<X c black",
"1X c black",
"2X c black",
"3X c black",
"4X c black",
"5X c black",
"6X c black",
"7X c black",
"8X c black",
"9X c black",
"0X c black",
"qX c black",
"wX c black",
"eX c black",
"rX c black",
"tX c black",
"yX c black",
"uX c black",
"iX c black",
"pX c black",
"aX c black",
"sX c black",
"dX c black",
"fX c black",
"gX c black",
"hX c black",
"jX c black",
"kX c black",
"lX c black",
"zX c black",
"xX c black",
"cX c black",
"vX c black",
"bX c black",
"nX c black",
"mX c black",
"MX c black",
"NX c black",
"BX c black",
"VX c black",
"CX c black",
"ZX c black",
"AX c black",
"SX c black",
"DX c black",
"FX c black",
"GX c black",
"HX c black",
"JX c black",
"KX c black",
"LX c black",
"PX c black",
"IX c black",
"UX c black",
/* pixels */
"$ $ $ $ $ $ $ $ $ $ $ $ $ $ $ $ $ $ $ $ $ $ $ $ $ $ $ $ $ $ $ $ ",
"3 3 3 3 3 3 3 4 3 3 3 3 4 3 3 3 3 3 3 3 4 3 3 3 3 4 3 3 3 3 3 3 ",
"3 3 3 2 2 2 2 2 2 2 2 2 2 2 2 2 2 2 2 2 2 2 2 2 2 2 2 2 3 3 3 3 ",
"5 3 3 $ $ $ $ $ $ $ $ $ $ $ $ $ $ $ $ $ $ $ $ $ $ $ $ $ 3 4 3 2 ",
"5 3 3 $ $ $ $ $ $ $ $ $ $ $ # # # $ $ $ $ $ $ $ $ $ $ X 3 4 3 2 ",
"5 3 3 $ $ $ $ $ # # # # # $ > - : + $ # # # # # $ $ $ X 3 4 3 2 ",
"5 3 3 $ $ $ $ # > Z U H > O B 3.8.: # > H U H > # $ $ X 3 4 3 2 ",
"5 4 3 $ $ $ $ > [ u.:.9.I + 1 $.f.a + [ 0.&.t.I + # $ X 3 4 3 2 ",
"5 3 3 $ # $ X V <.K ] | ,.I > _ y.p ( 1.{ ^ D -.m X $ X 3 4 3 2 ",
"5 3 3 $ # $ # p ^ L } ..| ) J _ _ ^ { { _ T c ` p # $ X 3 4 3 2 ",
"5 3 3 $ # $ # H q.D D K ..~ { ` o./ ~ ' F D B i.Z # $ $ 3 4 3 2 ",
"5 3 3 $ # $ # U w. .Y j z J } &.O._ S d j R ' i.P # $ $ 3 4 3 2 ",
"5 3 3 $ $ $ # U w. .' ..x ; F ;.F z ; b .. .' i.P # $ X 3 4 3 2 ",
"5 3 3 $ $ $ # U r. .' #.F j #.@.T ' d T %. .' s.P # $ X 3 4 3 2 ",
"5 3 3 $ $ $ # H &...' %.F d ' ..T R j T %. ...:.C # $ X 3 4 3 2 ",
"5 3 3 $ $ $ # l }  .' %.F s +.R Y ' s T %. .' O.k # $ X 3 4 3 3 ",
"5 3 3 $ $ $ # U r. .' %.F < D 6...R g E %. .' s.P # $ X 3 4 3 2 ",
"5 3 3 $ $ $ # U w. .' %.F , K 7.%.R f E %. .' i.P # $ X 3 4 3 2 ",
"5 3 3 $ $ $ # U w. .' %.F , D ..x D 1 T %. .' i.P # $ X 3 4 3 2 ",
"5 3 3 $ $ $ # U w. .' #.b : X.N i ..f G #. .' i.P # $ X 3 4 3 2 ",
"4 3 3 $ $ $ # U w. .' .., - M t 7 A h =  . .' i.P # $ X 3 4 3 3 ",
"3 3 3 $ # $ # U r.' G 1 * 7 w W W y u 9 < G R s.P # $ X 3 4 3 3 ",
"3 3 3 $ # $ # U 4.a > # 9 W 0 W ! 0 q t % > a 5.P # $ X 3 4 3 3 ",
"3 3 3 $ # $ # v f # # $ o e ! t r Q 8 % $ # # n g # $ X 3 4 3 $ ",
"5 3 3 $ $ $ $ + $ $ $ $ # o 9 8 u y & # $ $ $ $ + $ $ X 3 4 4 $ ",
"5 4 3 $ $ $ $ $ $ $ $ $ $ # o 9 y & # $ $ $ $ $ $ $ $ X 3 4 3 $ ",
"5 3 3 $ $ $ $ $ $ $ $ $ X X # o % # $ $ X X X $ $ $ $ X 3 4 3 $ ",
"5 3 3 $ X X X X X X X X X X X X # X X X X X X X X X X X 3 4 3 $ ",
"5 3 3 2 3 3 3 3 3 3 3 3 3 3 3 3 3 3 3 3 3 3 3 3 3 3 3 3 5 4 3 $ ",
"5 3 4 4 4 4 4 4 4 4 4 4 4 4 4 4 4 5 4 4 4 4 4 4 4 4 4 4 4 3 3 $ ",
"4 2 2 3 3 2 2 3 3 3 2 3 3 3 3 3 2 3 2 3 3 3 3 3 2 2 3 3 3 3 2 X ",
".                                                               "
};
