/* XPM */
static char *_72c4966292248efebf998ab2a6a280d1p3vd7Fv4vP6fMmK[] = {
/* columns rows colors chars-per-pixel */
"32 32 244 2 ",
"   c #020202",
".  c #0B0403",
"X  c #130202",
"o  c #1C0203",
"O  c #140A06",
"+  c #1C0906",
"@  c #150D0C",
"#  c #1A0C0B",
"$  c #18050A",
"%  c #1B120E",
"&  c #0F1210",
"*  c #161414",
"=  c #230305",
"-  c #2B0303",
";  c #230A05",
":  c #2C0903",
">  c #240509",
",  c #2B0509",
"<  c #230C0B",
"1  c #2D0B0C",
"2  c #340104",
"3  c #3B0103",
"4  c #340D03",
"5  c #3A0A03",
"6  c #330409",
"7  c #3C030A",
"8  c #350A0D",
"9  c #3B090C",
"0  c #271108",
"q  c #361004",
"w  c #281B15",
"e  c #3F1B12",
"r  c #2A231A",
"t  c #38261A",
"y  c #362B23",
"u  c #420204",
"i  c #430C03",
"p  c #4B0B03",
"a  c #44040A",
"s  c #4B040A",
"d  c #410A0C",
"f  c #4B0A0E",
"g  c #4C0204",
"h  c #52040A",
"j  c #5B040B",
"k  c #540B0B",
"l  c #570705",
"z  c #481809",
"x  c #591805",
"c  c #490C10",
"v  c #560A10",
"b  c #5B0A11",
"n  c #521D17",
"m  c #63030C",
"M  c #6C030C",
"N  c #680909",
"B  c #72040D",
"V  c #7A020C",
"C  c #770709",
"Z  c #671A07",
"A  c #7B1B02",
"S  c #79150A",
"D  c #751C04",
"F  c #630A11",
"G  c #6C0A12",
"H  c #690411",
"J  c #780913",
"K  c #760811",
"L  c #781C12",
"P  c #48291B",
"I  c #582C17",
"U  c #532D16",
"Y  c #69240A",
"T  c #792507",
"R  c #753A1E",
"E  c #612913",
"W  c #7E1E23",
"Q  c #563B2D",
"!  c #6D3528",
"~  c #564632",
"^  c #434234",
"/  c #6B4B35",
"(  c #754D34",
")  c #5C5140",
"_  c #7E5D43",
"`  c #7E634F",
"'  c #840004",
"]  c #84030D",
"[  c #8C030B",
"{  c #94010B",
"}  c #9C000B",
"|  c #95090B",
" . c #871B06",
".. c #860411",
"X. c #8C0511",
"o. c #850B14",
"O. c #950511",
"+. c #9D0512",
"@. c #9C0915",
"#. c #920A14",
"$. c #851614",
"%. c #9B1C19",
"&. c #9A150D",
"*. c #A2010A",
"=. c #A9000C",
"-. c #B3000E",
";. c #BB000C",
":. c #A51C03",
">. c #A10512",
",. c #AD0412",
"<. c #A30A15",
"1. c #AB0C19",
"2. c #A90916",
"3. c #B50513",
"4. c #BB0513",
"5. c #B40917",
"6. c #BC0E1B",
"7. c #BC111F",
"8. c #862609",
"9. c #922505",
"0. c #952B06",
"q. c #932708",
"w. c #992807",
"e. c #86320B",
"r. c #8A330D",
"t. c #94350F",
"y. c #8E2817",
"u. c #99271E",
"i. c #993C14",
"p. c #8E3512",
"a. c #A92A04",
"s. c #AA3309",
"d. c #B73A09",
"f. c #A83915",
"g. c #BD3C1D",
"h. c #AF2A09",
"j. c #973926",
"k. c #883B2C",
"l. c #AD2429",
"z. c #A83928",
"x. c #B93B3E",
"c. c #B3362F",
"v. c #C33A05",
"b. c #D0380B",
"n. c #ED2F0B",
"m. c #C1373B",
"M. c #C53D21",
"N. c #C61014",
"B. c #B9430E",
"V. c #AE4110",
"C. c #A74319",
"Z. c #BE4814",
"A. c #BB541A",
"S. c #8C482E",
"D. c #93532C",
"F. c #A24528",
"G. c #B64C29",
"H. c #A55A2B",
"J. c #B55723",
"K. c #B64A36",
"L. c #AD5839",
"P. c #97673C",
"I. c #BB6228",
"U. c #B16E30",
"Y. c #C9440B",
"T. c #C94505",
"R. c #D54608",
"E. c #C54713",
"W. c #D74B12",
"Q. c #C65519",
"!. c #D65D1B",
"~. c #DB5A1A",
"^. c #D75416",
"/. c #EC520B",
"(. c #FB4915",
"). c #E25412",
"_. c #E75817",
"`. c #EE4D0E",
"'. c #DB661E",
"]. c #E8661B",
"[. c #F7691C",
"{. c #CD4523",
"}. c #CF5026",
"|. c #C6573C",
" X c #C96B28",
".X c #DE752E",
"XX c #CA6E32",
"oX c #CC7734",
"OX c #DB6D2B",
"+X c #E16623",
"@X c #E46B23",
"#X c #E66B25",
"$X c #FC6924",
"%X c #E77429",
"&X c #F97A27",
"*X c #E57D34",
"=X c #F17C38",
"-X c #BA4645",
";X c #906748",
":X c #B8764B",
">X c #B57A52",
",X c #A97149",
"<X c #9D7A68",
"1X c #C55E4F",
"2X c #C75152",
"3X c #DC7D43",
"4X c #C96354",
"5X c #CB7547",
"6X c #D36E66",
"7X c #C9943F",
"8X c #FF902C",
"9X c #E78937",
"0X c #F98A37",
"qX c #FF993C",
"wX c #E7802F",
"eX c #BA8A5F",
"rX c #8E8061",
"tX c #9F856F",
"yX c #B38A6C",
"uX c #D88442",
"iX c #D58B56",
"pX c #CF8458",
"aX c #FF9C45",
"sX c #E7995B",
"dX c #E88D4A",
"fX c #EDA55C",
"gX c #F5AD5B",
"hX c #D29362",
"jX c #C48674",
"kX c #DDA87C",
"lX c #F6AA62",
"zX c #F0AF7C",
"xX c #FAB776",
"cX c #E8A66C",
"vX c #FFDE52",
"bX c #FFD54B",
"nX c #D89B85",
"mX c #C49580",
"MX c #CDB286",
"NX c #CFB493",
"BX c #EAB285",
"VX c #EAC29F",
"CX c #DFCEAD",
"ZX c #D0D1AD",
/* pixels */
"        X 2 - - = o X l { *.-.-.-.-.-.} } h o = o o o X     . o ",
"= =     o 3 - - = = o m =.3.4.4.3.3.3.*.>.j = > > - = o   . . X ",
"X - .   o u - - - - > M 4.3.3.4.4.4.3.>.>.m , , 2 6 , =   O X = ",
". - .   o g 2 2 2 3 3 V 3.3.3.3.3.3.4.>.>.m 6 7 a a 6 > + + - 5 ",
"  o O   > h a g m M M ..5.3.3.,.3.4.4.>.+.B j M B M h 6 ; ; 5 l ",
"  X . . , j j ..O.+.+.@.1.5.1.6XjXm.4.2.@...O.O.+.+.B k 5 ; x i ",
"  5 X . 6 M V ,.3.,.3.>.1.,.2XVXy NX2X,.@.O.3.3.3.,.{ ..x   A x ",
"X p - + 9 O.+.4.4.3.4.<.@.1.BX` y VXnX2.@.+.4.4.3.3.+.X.p : w.x ",
"X p p : a ,.5.4.4.3.4.<.O.-XkX@ yX` yXx.} >.4.3.4.3.>.] p  .a.i ",
"X - x 4 s 4.3.3.4.4.4.<.[ 1XzXt ( . ) 4X{ >.4.4.4.3.>.X.1 A s.i ",
"o z A 4 7 4.3.5.4.4.4.@.O.j.P.>X  Q r k.+.O.4.3.5.3.+.X.+ w.d.e.",
"4 T D D s 4.,.=.5.6.;.#.o.u.w P.  eX;Xn 3.*.3.7.;.3.+.X.$ s./.wX",
": 8.Z a.C >.=.l.jXtXm.X.H {./   w P zXL.=.N.jXtX-X-.>...8 s.R.dX",
": 8.D a.C >.} nXrX^ CXy.m l.uXw 5X* ,XK.' :XMXw ZXx.} [ # 8.v.%X",
"2 d.V.R.S { l.kXr ;XNX! j $.dX5XL.* pX%.' |.~ / MXjX} [ 1 9._.t.",
". J.wXR.&.' 4XeXw >Xr ! j M z.aXw ;X|.V } M.U :Xr yXl.V Z 0.].T ",
"  I.#Xa.$.] K.hXQ # & l C F M K.( F.#.J ' }.U.z < ~ c.B e.[.+XD ",
". C.~.h.S ..T I H.& :XN F v H K o.V o.G | B.7Xq 3Xr $...Z ).t.r.",
"X : Z.E.S B g.P %   :Xk.3 k b G J J o.H &.s.V.D S.hXu.V z T.8.f.",
"X 4 V.]. .j g.H.w D.t y.3 c v F G J J b | OX'.oX& iX%.B x ^.d. .",
"; T r.^.y.h $.3XXXR ! M.g 9 c b F G G b M sXbXU.r XX[ M z !.Z.h.",
"T 0.t.0. .g m G.*Xn 3Xf.a 9 d c v G F v m I.vXr.;Xz.V M U ~.f.Q.",
"D.r.9.R.L u j C z.G.b.h.Z , 8 d c b b v j :.aX9Xl.V J j T ^.Q.*X",
"/ ^.:.'.Z 7 k m m } n.s.Y > 8 9 d f c 9 8.W.n._.V ] K m V.'.0XxX",
"i.OXV.E.Z 6 f h F V `.@XT $ 1 1 8 c d 2 S.(.(._.C B m N !.J.%XBX",
"i.'.%X^.x , a s j N n.qXE X < < 1 9 8 > j.=X$X_.B m F j ].'.A.XX",
"e.5XxX#XY , 9 3 s j n.@Xz $ # # < 1 z 9 q.sXgX[.w.h j h *X].].J.",
"w.C.fXB.Q o 6 6 9 N &XA.6 # # # < > I Z ~.uX=X8Xi.a v g *X%Xd.!.",
"!. XI.W.I X 6 , 6 k ).A.e.O % % < < e U.8X*X_.qXC.3 s i T.R.9.Y.",
"&XI.'.).x . > > , 5 _.R.H.@ # O < . T lX0X~.R./.b.6 i - W.0.0.~.",
")./.s.T.x X > + + 8 !.@XXX+ + O . ( H.gXsX'.B.:.S > 5 = 0.Z 8.[.",
"].9.E.9.i . o + . x [.lXoX; % O + uX XfXhX9.B.D 3 , : = T i 9.W."
};
