/* XPM */
static char *_2eaf3eca69d4929fc2fb1c6b7274b05EWS1rj2mDSksDkm3[] = {
/* columns rows colors chars-per-pixel */
"8 8 64 1 ",
"  c #BE6644",
". c #DC7A51",
"X c #C36F50",
"o c #DD7554",
"O c #C56A53",
"+ c #D46C52",
"@ c #BF6249",
"# c #AD5543",
"$ c #C36245",
"% c #BD684E",
"& c #CE7357",
"* c #BE6D54",
"= c #D27253",
"- c #BB6A52",
"; c #CD6A50",
": c #A85A45",
"> c #B25D45",
", c #C16A4C",
"< c #C37055",
"1 c #C27056",
"2 c #C36E54",
"3 c #BF6C55",
"4 c #BF664F",
"5 c #AD5B45",
"6 c #B66247",
"7 c #D2704B",
"8 c #C16D50",
"9 c #D37555",
"0 c #CE6F52",
"q c #C06549",
"w c #B85B44",
"e c #CC684D",
"r c #C66A4B",
"t c #D6734B",
"y c #C37355",
"u c #D97856",
"i c #BF6E51",
"p c #D66E4B",
"a c #B15C44",
"s c #B35D42",
"d c #CC6A47",
"f c #C06B4E",
"g c #CE7356",
"h c #C37056",
"j c #C96E4E",
"k c #C16748",
"l c #B45E41",
"z c #AF583C",
"x c #C56441",
"c c #BF694D",
"v c #C76C50",
"b c #C0674C",
"n c #C46444",
"m c #BC5D3E",
"M c #AB5537",
"N c #CB5933",
"B c #C35F3E",
"V c #E06E46",
"C c #C76749",
"Z c #E46B43",
"A c #C25E3F",
"S c #DA5E34",
"D c #AC4E31",
"F c white",
/* pixels */
" .XoO+@#",
"$%&*=-;:",
">,<12345",
"6789<0qw",
"ertyuipa",
"sdfghjkl",
"zxcvbnmM",
"NBVCZASD"
};
