/* XPM */
static char *_430427edc5e4c05954bff1c890e7d448jNJkMEG6hKcGgQG[] = {
/* columns rows colors chars-per-pixel */
"32 32 196 2 ",
"   c #1F170B",
".  c #131314",
"X  c #1D1E1E",
"o  c #261F0B",
"O  c #251D10",
"+  c #27200C",
"@  c #2C220E",
"#  c #31250F",
"$  c #352F0B",
"%  c #3D340E",
"&  c #37300C",
"*  c #2E2410",
"=  c #27221C",
"-  c #322611",
";  c #352912",
":  c #3B2C14",
">  c #3E2C1C",
",  c #3D301C",
"<  c #3F3116",
"1  c #1E1F20",
"2  c #242424",
"3  c #2B2B2B",
"4  c gray20",
"5  c #393429",
"6  c #550904",
"7  c #451E0F",
"8  c #690202",
"9  c #710000",
"0  c #790B04",
"q  c #60130A",
"w  c #41350F",
"e  c #41380E",
"r  c #402F16",
"t  c #592814",
"y  c #423214",
"u  c #443911",
"i  c #4F3D11",
"p  c #453419",
"a  c #4A3519",
"s  c #4C381A",
"d  c #483614",
"f  c #5A3E1F",
"g  c #52391B",
"h  c #632E17",
"j  c #622D1A",
"k  c #77301D",
"l  c #4F3F2B",
"z  c #4C3B26",
"x  c #533C24",
"c  c #503F2B",
"v  c #5D3F21",
"b  c #543F3C",
"n  c #5B4C05",
"m  c #56490A",
"M  c #5F5007",
"N  c #5E4518",
"B  c #714C0E",
"V  c #784D0B",
"C  c #645605",
"Z  c #64530A",
"A  c #69570B",
"S  c #6D5D09",
"D  c #7F5C03",
"F  c #705E0A",
"G  c #6F4E10",
"H  c #61461B",
"J  c #714B10",
"K  c #794F14",
"L  c #6D600D",
"P  c #73610B",
"I  c #786717",
"U  c #77681C",
"Y  c #796A1D",
"T  c #594124",
"R  c #51402B",
"E  c #4B453B",
"W  c #574632",
"Q  c #5D4933",
"!  c #564438",
"~  c #634322",
"^  c #6A4624",
"/  c #6E4926",
"(  c #6D4728",
")  c #714B27",
"_  c #754C29",
"`  c #7A4E2A",
"'  c #714323",
"]  c #7D512C",
"[  c #624934",
"{  c #634D39",
"}  c #745032",
"|  c #785338",
" . c #6B5A3B",
".. c #746021",
"X. c #74613E",
"o. c #78743C",
"O. c #77733B",
"+. c #474748",
"@. c #474848",
"#. c #4B4B4B",
"$. c #534F49",
"%. c #5D5448",
"&. c #545452",
"*. c #5A5957",
"=. c #5C5B5A",
"-. c #685847",
";. c #645648",
":. c #615F5C",
">. c #665753",
",. c #755B45",
"<. c #7E6C48",
"1. c #686458",
"2. c #756357",
"3. c #7B765F",
"4. c #5D5F60",
"5. c #5C6161",
"6. c #666563",
"7. c #6A6663",
"8. c #6C6966",
"9. c #6B6C6C",
"0. c #666768",
"q. c #746E6B",
"w. c #726B66",
"e. c #757663",
"r. c #73706E",
"t. c #7D736D",
"y. c #6F6F71",
"u. c #6F7071",
"i. c #707070",
"p. c #840201",
"a. c #920A0A",
"s. c #911008",
"d. c #821C1C",
"f. c #81371D",
"g. c #98231A",
"h. c #973B3A",
"j. c #815C04",
"k. c #815212",
"l. c #925B14",
"z. c #856303",
"x. c #886503",
"c. c #8E6C02",
"v. c #846C1F",
"b. c #84542E",
"n. c #89562F",
"m. c #845631",
"M. c #8A5630",
"N. c #8D5933",
"B. c #815739",
"V. c #945C35",
"C. c #995F37",
"Z. c #985833",
"A. c #9A6037",
"S. c #9D6239",
"D. c #827D3C",
"F. c #A3653C",
"G. c #AA693F",
"H. c #914242",
"J. c #8E6144",
"K. c #8A6948",
"L. c #966A4C",
"P. c #9D6843",
"I. c #93744C",
"U. c #9C6F52",
"Y. c #8C705F",
"T. c #90725E",
"R. c #AD6B40",
"E. c #A06642",
"W. c #A8714D",
"Q. c #B77245",
"!. c #BA7346",
"~. c #BF7849",
"^. c #A76651",
"/. c #B47954",
"(. c #8B6D6D",
"). c #897263",
"_. c #A37C63",
"`. c #C07748",
"'. c #C47A4A",
"]. c #CA7D4D",
"[. c #D07F4F",
"{. c #858136",
"}. c #CF804F",
"|. c #CF8250",
" X c #DB8753",
".X c #DF8855",
"XX c #D78858",
"oX c #D88755",
"OX c #E88F58",
"+X c #E38C58",
"@X c #EA915C",
"#X c #F5975D",
"$X c #C69375",
"%X c #F29B66",
"&X c #E49667",
"*X c #FCA169",
/* pixels */
": : : ; : : : ; : ; : : : ; : : ; : ; : : : : : : : : : ; : : : ",
"r : y < < r : > r < : r < r r r r r r : : < > : r : r r r r r : ",
"+ < d u e u w $ w u % % & y u u % u d % $ % % u y $ % % u d - p ",
"+ : L c.x.x.x.z.x.x.z.x.z.j.D D D D j.D D D j.D j.D j.j.z.B # a ",
"- @ S V z l l l R R c c l R c W W W W W W W Q Q Q { { { _ N $ < ",
"; o C B $.9.9.0.0.0.9.0.9.=.@.+.+.#.=.0.9.9.9.9.y.9.y.y.o.N # : ",
"< + C B &.i.y.y.i.i.y.y.:.3 X 2 2 X 2 4 &.y.u.u.y.y.y.i.O.i @ % ",
"< : C B &.i.y.y.r.i.y.t./.J.! ! @.X 3 2 2 &.9.u.y.y.y.y.o.i * : ",
"; p P B &.i.y.i.u.i.i._.#X*X/.| 3 . 1 2 = 3 0.i.u.i.u.u.o.i @ : ",
"@ y P B &.i.r.u.i.9.r.W.|.%X@XP.x , = 1 X 3 0.i.i.i.u.y.D.i @ a ",
"+ : P B *.y.i.i.i.i.(.K.` XX%X+X!.S.) = . 3 0.i.r.u.r.y.D.i @ a ",
"+ @ C J *.i.i.i.u.i.$X&X'.OX+X}.].S.m.  . #.i.i.u.u.y.y.D.i @ a ",
"@ + C J *.y.i.i.u.r.T.B.]. X X~.!.R.^ = 2 9.i.i.i.i.i.y.D.i @ p ",
"- o n J *.y.i.i.r.i.q.E..X.X'.A.S.N.f , &.i.i.i.i.i.i.y.D.i @ : ",
"* + n G *.i.i.i.i.u.r.XX X}.S.b.G.}.A.T >.u.i.i.y.i.i.y.D.i @ : ",
"* + M J *.i.i.i.i.u.r._.L.m.] S.'.G.] f R %.0.y.i.i.q.y.D.i @ r ",
"O - M J *.i.i.i.i.9.y.y.w.J.S.G.N.) ~ ~ ( ~ [ %.0.r.i.u.D.i @ % ",
"+ - M J *.i.i.r.i.y.y.1.L.G.F.N.) ^ b.V.C.Z.V.] Q 6.i.u.D.i * : ",
"o o n G *.i.i.i.i.i.1.Q A.G.S.( _ C.C.` _ n.M.b.^ Q 9.u.D.i * p ",
"o o n J *.i.i.i.i.9.-.~ _ n.` m.C.A.n.f ( M.M.` ^ T 8.u.D.i o a ",
"- o n G *.i.i.i.i.8.} ~ v b.N.C.C.C.) N C.F.Z.M.^ p 0.y.D.i @ r ",
"; o m J *.i.i.i.i.2.` ~ ) C.F.F.N.` x | F.F.M.n.~ , 0.y.D.i @ r ",
": # n K *.i.i.i.9.,._ ~ n.m.( N.^ x E 8.^.Z.` V.g 5 9.y.D.i @ : ",
"- : Z K :.i.i.i.7.m._ ^ V.N.v H j b #.*.(.g.f.N.a E q.y.D.i @ r ",
"- p A K :.i.i.i.2.n.' ) S.S.] ^ s.h.5.=.>.a.p.h ; $.i.y.D.i * r ",
"+ p A K :.i.u.r.L.n.] b.n.V.V.S.N.k h.H.d.p.9 6 : %.i.y.D.i @ : ",
"+ ; Z K :.i.u.r.U.G.F.M.n.G.!.G.Q.N.h 0 p.9 6 7 d -.y.y.D.i @ r ",
"o - Z K :.i.y.y.q.).).L.G.Q.R.Q.`.F.) t 8 q t Q } 2.y.y.D.i @ a ",
"+ o n k.1.e.e.e.e.e.e.3.I.I.I.I.I.L.K. .[ X.K.<.3.e.e.e.{.i * a ",
"@ o m l.v.v.Y I Y I U U U U U U U U U Y Y Y I I U U I I I d * a ",
"# + : s a : # # # @ @ # - - ; # # # ; @ @ # - - - @ # @ # ; - a ",
": @ # # : : # + + + ; : ; : : ; @ : : # o # : : ; ; o o o : ; a "
};
