/* XPM */
static char *_c2a2d7d2c184bd3e61a99d1df063bedKc17hEeyCVotFMCF[] = {
/* columns rows colors chars-per-pixel */
"32 32 256 2 ",
"   c black",
".  c #010101",
"X  c #020202",
"o  c gray1",
"O  c gray2",
"+  c #060606",
"@  c #070707",
"#  c gray3",
"$  c #0C0C0C",
"%  c gray5",
"&  c #0E0E0E",
"*  c #161616",
"=  c gray9",
"-  c #191919",
";  c gray10",
":  c #1B1B1B",
">  c #202020",
",  c #252525",
"<  c gray15",
"1  c #272727",
"2  c #2F2525",
"3  c #272B2B",
"4  c #282828",
"5  c gray16",
"6  c #292B2B",
"7  c #2A2A2A",
"8  c gray17",
"9  c #282C2C",
"0  c #292C2C",
"q  c #292D2D",
"w  c #2A2E2E",
"e  c #2B2E2E",
"r  c #2C2C2C",
"t  c #2C2D2D",
"y  c #2D2D2D",
"u  c #2E2D2D",
"i  c #2C2E2E",
"p  c #2D2E2E",
"a  c #2D2F2F",
"s  c gray18",
"d  c #2E2F2F",
"f  c #2F2F2F",
"g  c #332121",
"h  c #342121",
"j  c #342222",
"k  c #352323",
"l  c #312727",
"z  c #362424",
"x  c #2C3030",
"c  c #2C3131",
"v  c #2D3131",
"b  c #2E3030",
"n  c #2F3030",
"m  c #2F3131",
"M  c #2D3232",
"N  c #2E3232",
"B  c #2E3333",
"V  c #2F3333",
"C  c #2F3434",
"Z  c gray19",
"A  c #313131",
"S  c gray20",
"D  c #303434",
"F  c #353535",
"G  c gray21",
"H  c #373737",
"J  c gray22",
"K  c #393939",
"L  c #3A3A3A",
"P  c #6F0D0D",
"I  c #6F0E0E",
"U  c #700E0E",
"Y  c #621111",
"T  c #6D1010",
"R  c #6E1010",
"E  c #4E2020",
"W  c #7B2121",
"Q  c #693131",
"!  c #434343",
"~  c gray33",
"^  c gray35",
"/  c #5A5A5A",
"(  c #636767",
")  c #636868",
"_  c #646868",
"`  c #646969",
"'  c #656969",
"]  c #6A6B6B",
"[  c #6B6C6C",
"{  c #6B6D6D",
"}  c #7B7F7F",
"|  c #931E1E",
" . c #931F1F",
".. c #941F1F",
"X. c #B70202",
"o. c #B90000",
"O. c #BA0101",
"+. c #B80303",
"@. c #BA0202",
"#. c #902121",
"$. c #912121",
"%. c #922020",
"&. c #932020",
"*. c #922121",
"=. c #932121",
"-. c #A12929",
";. c #A72828",
":. c #A62929",
">. c #A23434",
",. c #A73434",
"<. c #A63535",
"1. c #A43636",
"2. c #A53636",
"3. c #A53737",
"4. c #A63737",
"5. c #A93737",
"6. c #AA3636",
"7. c #AA3737",
"8. c #AB3737",
"9. c #AA3838",
"0. c #CE0D0D",
"q. c #D50303",
"w. c #D80202",
"e. c #DA0303",
"r. c #DD0000",
"t. c #DE0000",
"y. c #DF0000",
"u. c #D80404",
"i. c #D90404",
"p. c #DA0404",
"a. c #E00000",
"s. c #E10000",
"d. c #E20000",
"f. c #E30000",
"g. c #E40000",
"h. c #E50000",
"j. c #E60000",
"k. c #C32323",
"l. c #8D5555",
"z. c #B74747",
"x. c #B95353",
"c. c #A26363",
"v. c gray58",
"b. c #999D9D",
"n. c gray61",
"m. c #9D9D9D",
"M. c #B39494",
"N. c #B5A2A2",
"B. c #B0B1B1",
"V. c #B1B5B5",
"C. c #BBC3C3",
"Z. c #BFC1C1",
"A. c #C8C8C8",
"S. c black",
"D. c black",
"F. c black",
"G. c black",
"H. c black",
"J. c black",
"K. c black",
"L. c black",
"P. c black",
"I. c black",
"U. c black",
"Y. c black",
"T. c black",
"R. c black",
"E. c black",
"W. c black",
"Q. c black",
"!. c black",
"~. c black",
"^. c black",
"/. c black",
"(. c black",
"). c black",
"_. c black",
"`. c black",
"'. c black",
"]. c black",
"[. c black",
"{. c black",
"}. c black",
"|. c black",
" X c black",
".X c black",
"XX c black",
"oX c black",
"OX c black",
"+X c black",
"@X c black",
"#X c black",
"$X c black",
"%X c black",
"&X c black",
"*X c black",
"=X c black",
"-X c black",
";X c black",
":X c black",
">X c black",
",X c black",
"<X c black",
"1X c black",
"2X c black",
"3X c black",
"4X c black",
"5X c black",
"6X c black",
"7X c black",
"8X c black",
"9X c black",
"0X c black",
"qX c black",
"wX c black",
"eX c black",
"rX c black",
"tX c black",
"yX c black",
"uX c black",
"iX c black",
"pX c black",
"aX c black",
"sX c black",
"dX c black",
"fX c black",
"gX c black",
"hX c black",
"jX c black",
"kX c black",
"lX c black",
"zX c black",
"xX c black",
"cX c black",
"vX c black",
"bX c black",
"nX c black",
"mX c black",
"MX c black",
"NX c black",
"BX c black",
"VX c black",
"CX c black",
"ZX c black",
"AX c black",
"SX c black",
"DX c black",
"FX c black",
"GX c black",
"HX c black",
"JX c black",
"KX c black",
"LX c black",
"PX c black",
"IX c black",
"UX c black",
/* pixels */
"- - - - - - - - - - - - - - - - - - - - - - - - - - - - - - - - ",
"s s s s s s b b s s s s b s s s s s s s s s s s s b s s s s s s ",
"8 s s 2 k k g g g k z k k g g k k k k g k k k k k k g g l s s s ",
"H s w Y X.X.X.X.+.+.+.+.+.+.+.+.+.+.+.+.+.+.+.+.+.+.+.+.W b s < ",
"K s w T y.d.d.d.i.:.<.5.9.9.9.9.9.9.9.9.5.<.:.i.d.d.d.g.#.b s < ",
"K s w T y.d.d.d.w.c.C.} ( ` ` ` ` ` ` ( } C.c.w.d.d.d.d.#.b s < ",
"K s w T y.d.d.d.d.k.N.{                 { N.k.d.d.d.d.d.#.C s < ",
"K Z w T y.d.d.d.d.d.z.B.<             < B.z.y.d.d.d.d.g.#.b s < ",
"K s w T q.i.d.d.d.d.0.M.]             ] M.0.d.d.d.d.u.w.#.b s < ",
"K s 3 I -.c.k.y.d.d.y.x.b.&         & b.x.y.d.d.d.k.c.:.#.b s 3 ",
"K s w I >.C.N.z.0.y.g.9.V.>         > V.9.g.y.0.z.N.C.<. .b s < ",
"K s w I <.} { B.M.x.5.l.Z.K         K Z.l.5.x.M.B.{ } 5. .b s < ",
"K s w I 4.`   < ] b.V.Z.A.!         ! A.Z.V.b.] <   ` 5. .b s < ",
"K s w I <.`       & > K ! = @ ^ Z   = ! K > &       ` 5. .b s < ",
"K s 3 I <.`                 ^ v.~ ^ #               ` 5. .b s < ",
"K s w I <.`               Z ~ n.n.v.^               ` 5. .b s 8 ",
"K s w I <.`               ^ v.n.n.~ Z               ` 5. .b s < ",
"K s 8 I <.`               # ^ ~ v.^                 ` 5. .b s < ",
"K s w I 4.`       & > K ! =   Z ^ @ = ! K > &       ` 5. .b s < ",
"K s 3 I 4.`   < ] b.V.Z.A.!         ! A.Z.V.b.] <   ) 5. .b s < ",
"Z s w I <.} { B.M.x.5.l.Z.K         K Z.l.5.x.M.B.{ } 5. .b s 8 ",
"s s w I >.C.N.z.0.y.g.9.V.>         > V.9.g.y.0.z.N.C.5. .b s s ",
"8 s w I -.c.k.d.d.d.y.x.b.&         & b.x.y.d.d.y.k.c.:. .b s 8 ",
"8 s w T q.i.d.d.d.d.0.M.]             ] M.0.d.d.d.d.i.w.#.b s - ",
"H s w T y.d.d.d.d.y.z.B.<             < B.z.d.d.d.d.d.g.#.b Z - ",
"H s w I y.d.d.d.d.k.N.{                 { N.k.d.d.d.d.d.#.b s - ",
"H s w T y.d.d.d.q.c.C.} ( ` ` ` ` ` ` ( } C.c.q.d.d.d.d.#.b s - ",
"H s 3 T d.d.d.g.i.:.<.5.5.5.5.5.5.5.5.5.5.,.:.i.d.d.d.g.#.b s - ",
"H s 8 E #.#.#.#.#. . . . . . . . ... . . . . .#.#.#.#.#.Q b s - ",
"H s Z b b b b b b b b b b b b b b D b C b b b C b b b b b s Z - ",
"Z < < 8 8 < < 8 8 8 < 8 8 8 8 8 < 8 4 8 8 8 8 8 < < 8 8 8 8 3 = ",
"$ @ @ @ @ @ @ @ @ @ @ @ @ @ @ @ @ @ @ @ @ @ @ @ @ @ @ @ @ @ @   "
};
