/* XPM */
static char *result[] = {
/* columns rows colors chars-per-pixel */
"32 32 244 2 ",
"   c #020202",
".  c #0B0302",
"X  c #130202",
"o  c #1C0203",
"O  c #1C0806",
"+  c #150C0B",
"@  c #1B0B0A",
"#  c #150707",
"$  c #1B110B",
"%  c #0F1110",
"&  c #161617",
"*  c #230304",
"=  c #2B0303",
"-  c #230A04",
";  c #2B0903",
":  c #2B0509",
">  c #230A0B",
",  c #2C0A0B",
"<  c #220409",
"1  c #340304",
"2  c #3C0202",
"3  c #330C02",
"4  c #3D0B05",
"5  c #320408",
"6  c #3C0409",
"7  c #34090C",
"8  c #3C090D",
"9  c #271B15",
"0  c #36150D",
"q  c #2A221A",
"w  c #2A2117",
"e  c #37261A",
"r  c #352B23",
"t  c #420105",
"y  c #4B0103",
"u  c #430A03",
"i  c #4B0A02",
"p  c #440309",
"a  c #4C0309",
"s  c #420B0D",
"d  c #4B090D",
"f  c #530404",
"g  c #55040A",
"h  c #5C040A",
"j  c #540A0C",
"k  c #59090F",
"l  c #560802",
"z  c #481908",
"x  c #591704",
"c  c #5A0A11",
"v  c #580811",
"b  c #511C16",
"n  c #64030B",
"m  c #6C030B",
"M  c #680707",
"N  c #74030D",
"B  c #7B020C",
"V  c #780709",
"C  c #631A09",
"Z  c #681B05",
"A  c #741C03",
"S  c #7B1A01",
"D  c #771808",
"F  c #630910",
"G  c #6C0911",
"H  c #670610",
"J  c #750912",
"K  c #780912",
"L  c #771C12",
"P  c #47281B",
"I  c #542C16",
"U  c #67240B",
"Y  c #7A2707",
"T  c #74391D",
"R  c #602813",
"E  c #7D1D22",
"W  c #563B2D",
"Q  c #643824",
"!  c #75312B",
"~  c #494332",
"^  c #5C4732",
"/  c #6B4B35",
"(  c #754C33",
")  c #5B5040",
"_  c #7E5D43",
"`  c #7D634E",
"'  c #830004",
"]  c #84030D",
"[  c #8B030E",
"{  c #8E0606",
"}  c #93010B",
"|  c #9D010C",
" . c #94080A",
".. c #871906",
"X. c #9C1607",
"o. c #8B0511",
"O. c #850A12",
"+. c #960510",
"@. c #9D0511",
"#. c #9B0914",
"$. c #920A14",
"%. c #841514",
"&. c #981C19",
"*. c #A40007",
"=. c #A3010D",
"-. c #AA000C",
";. c #B2000D",
":. c #BA000C",
">. c #A91F02",
",. c #A10511",
"<. c #AD0411",
"1. c #A20A15",
"2. c #AA0B18",
"3. c #B50412",
"4. c #BA0413",
"5. c #B30816",
"6. c #BB0E1B",
"7. c #BB111E",
"8. c #8B2405",
"9. c #83210B",
"0. c #862B09",
"q. c #922505",
"w. c #952A06",
"e. c #982708",
"r. c #83340B",
"t. c #8D300E",
"y. c #8D2716",
"u. c #973B17",
"i. c #953315",
"p. c #A62B04",
"a. c #B52A02",
"s. c #A93409",
"d. c #B93A0A",
"f. c #A42E10",
"g. c #A63816",
"h. c #BC3B1C",
"j. c #8D382A",
"k. c #AC2428",
"l. c #A73927",
"z. c #BA383B",
"x. c #B2362E",
"c. c #C50F14",
"v. c #CC3809",
"b. c #ED2E0B",
"n. c #C93E20",
"m. c #C13C3E",
"M. c #B5430E",
"N. c #AD4010",
"B. c #A64518",
"V. c #BE4612",
"C. c #BB4A18",
"Z. c #BA5319",
"A. c #8C482D",
"S. c #924120",
"D. c #9F5A2B",
"F. c #825031",
"G. c #945830",
"H. c #A14427",
"J. c #B54B28",
"K. c #AC5725",
"L. c #B95924",
"P. c #B05036",
"I. c #96663C",
"U. c #B96229",
"Y. c #B16D2F",
"T. c #C74109",
"R. c #CC480B",
"E. c #D64508",
"W. c #C44612",
"Q. c #D64B14",
"!. c #C65419",
"~. c #D65C1B",
"^. c #D95617",
"/. c #F1480B",
"(. c #E7510C",
"). c #FA4814",
"_. c #E45914",
"`. c #E65617",
"'. c #F45E16",
"]. c #E7470C",
"[. c #DA651E",
"{. c #E6661B",
"}. c #F86D1E",
"|. c #CD4C25",
" X c #C5563B",
".X c #C86A27",
"XX c #DC6321",
"oX c #DD6F2C",
"OX c #C96D31",
"+X c #CB7633",
"@X c #DA7A3A",
"#X c #DE792F",
"$X c #E36B24",
"%X c #E36623",
"&X c #FC6823",
"*X c #E6762A",
"=X c #F87927",
"-X c #E57C33",
";X c #F17A37",
":X c #BB4D47",
">X c #866344",
",X c #996A4A",
"<X c #B6764B",
"1X c #B67B52",
"2X c #A87048",
"3X c #8D7F60",
"4X c #9D7A68",
"5X c #C75450",
"6X c #DD7B44",
"7X c #C86353",
"8X c #CA7446",
"9X c #D26D65",
"0X c #CF8A3F",
"qX c #FF8F2B",
"wX c #E78837",
"eX c #F98936",
"rX c #FF993C",
"tX c #B9895E",
"yX c #9E846F",
"uX c #B2896B",
"iX c #D88443",
"pX c #D58A55",
"aX c #CE8357",
"sX c #E7985A",
"dX c #EF9049",
"fX c #ECA45B",
"gX c #F6A95B",
"hX c #D19261",
"jX c #C38573",
"kX c #C3947F",
"lX c #E39F60",
"zX c #DCA87B",
"xX c #EDAC79",
"cX c #F9B675",
"vX c #EAB271",
"bX c #FFDD51",
"nX c #FFD44B",
"mX c #D79A84",
"MX c #CCB185",
"NX c #CEB392",
"BX c #F1AA89",
"VX c #E9C19E",
"CX c #CFD0AC",
"ZX c #DECDAC",
/* pixels */
"        X 1 = * o o X f } -.;.:.;.;.-.| | f o o o o o X     . o ",
"* o     o 2 = = * * o n -.;.:.4.3.3.3.@.| h * * * = * o   .   X ",
"o =     o t = = = = * m 3.3.3.4.4.3.3.,.,.n : : 5 5 : o . . X * ",
"  1 .   o y 1 1 1 1 2 N 3.<.3.5.3.3.3.=.@.n 5 6 p p 5 < O O = 4 ",
"  o #   * f p a h m m o.5.5.5.3.4.3.3.,.,.m h m N m a 5 O - 4 l ",
"  . . . : g h B +.+.@.#.2.5.5.9XjXm.4.2.@.] o.@.@.+.N g u @ x 4 ",
"  3 X . 7 m ] <.3.<.3.1.2.<.5XNXr NX5X,.#.+.3.<.3.<.[ ] C   S x ",
"X f = O 6 o.@.3.4.3.4.1.#.2.BX` r VXmX<.#.@.4.4.4.<.| [ i - e.x ",
"X i i - s <.<.4.4.4.4.1.+.:XzX+ uX` uXm.| @.4.4.3.3.@.] i ..p.u ",
"X = l 3 a 4.3.3.4.3.4.1.} 5XxXe ( . ) 7X} @.c.5.4.3.@.] , S p.u ",
"o z S 3 6 4.<.3.4.3.4.#.o.j.I.<X  W q A.| +.4.;.4.3.| o.o q.M.0.",
"3 Y S U a 3.<.;.5.6.:.$.] i.9 2X  1X>Xb <.| 3.7.:.5.@.o.o s./.wX",
"3 0.Z p.V ,.-.k.kX4Xm.o.H |./   9 P xX:X*.c.jXyX:X;.,.] 0 s.E.wX",
"= 8.Z p.V @.*.mX3X~ ZXE n k.6X9 8X& 2XP.' :XMXq CXz.| [ + 8.d.*X",
"= d.N.T.D } k.zXw ,XNX! h K iXiXD.& aX&.B  X^ / MXuX| ] ; q.`.i.",
". K.=XE...[ 7XtX9 <Xq R h m H.dXw >X XN | n.P 8X9 uXk.] C e.[.Y ",
"  U.$Xp.9.[ P.pXW + % l K c m J.F.H.$.K ' |.Y.0 - ~ x.N 0.'.%XS ",
". B.~.a.D o.L I D.% <XM F v H N O.B o.G { W.pX3 iXe %.] U ^.i.t.",
". = W.W.V N h.e $ . <Xj.1 j v J K O.O.c X.p.N.A F.hX&.B z T.9.N.",
"O 3 N.%X..g h.D.9 G.e y.2 d d F G K K v { oX[.+X$ pX&.N z ^.d.S ",
"- Y t.^.t.g %.6XOXT Q n.y 8 d v c G G v m sXbXY.q OX' m z ~.W.a.",
"A w.t.w...a n J.-Xb 6Xf.6 8 s d v H F v n L.bXr.,Xl.B m I ^.f.!.",
"A.t...Q.L t h M l.J.v.f.C 5 7 s d v v d k >.rXwXf.B K h Y ^.!.wX",
"/ Q.p.[.Z 1 h n n | b.d.U o 7 7 8 d d 8 9.Q.b.`.B K m n g.XXeXcX",
"S.[.g.W.x : y j n N /.$XY # , , 7 s s 5 j.'.).`.B N n n [.L.oXxX",
"u.[.#X^.U = 6 a h n b.rXR X > > , 8 7 < j.;X&X`.m H n g {.[.Z.OX",
"r.8XcX{.C * 6 2 a h b.$Xz # > @ > , z 8 w.sXgX&Xe.g h a -X{.{.K.",
"p.B.fXV.Q o 7 5 6 C }.Z.5 + @ # > < I Z ^.@X;XqXu.p j y #X=Xd.^.",
"~..XU.R.I X = = 5 j _.C.r.# O + > < 0 OXqX*X_.rXB.2 a p T.E.w.R.",
"}.U.[._.b X : < = 4 ^.E.K.+ + + > . U gXeX^.E./.v.1 4 = R.w.w.^.",
"_.(.s.v.x . < O O 3 ~.$XOX+ + $ + T D.gXlX[.d.>.D < 3 = w.C 8.'.",
"{.w.W.8.u X O # # z }.gX+XO $ + $ iX.XfXhXq.V.Z 2 = ; o Y u 8.Q."
};
