/* XPM */
static char *_976f987165b41d6e7567c6273d28963d43NkaYAGTd1KTGu[] = {
/* columns rows colors chars-per-pixel */
"32 32 244 2 ",
"   c #18001B",
".  c #0D0022",
"X  c #0B022C",
"o  c #040025",
"O  c #1D002B",
"+  c #0C0133",
"@  c #0D003B",
"#  c #070139",
"$  c #13003C",
"%  c #1B003D",
"&  c #180234",
"*  c #25012E",
"=  c #2D0028",
"-  c #3C0023",
";  c #340026",
":  c #200034",
">  c #2B0035",
",  c #24013D",
"<  c #2C003B",
"1  c #340232",
"2  c #380438",
"3  c #47022C",
"4  c #470439",
"5  c #59023C",
"6  c #550436",
"7  c #670738",
"8  c #750B39",
"9  c #040043",
"0  c #0E0043",
"q  c #0D024A",
"w  c #0F084C",
"e  c #130144",
"r  c #1B0244",
"t  c #15024C",
"y  c #1C014D",
"u  c #150B4D",
"i  c #180A46",
"p  c #0F0054",
"a  c #0E045D",
"s  c #130254",
"d  c #1B0253",
"f  c #150A53",
"g  c #1B0953",
"h  c #1B035C",
"j  c #140B5B",
"k  c #16035A",
"l  c #17105F",
"z  c #250044",
"x  c #2B0044",
"c  c #22024A",
"v  c #2E004B",
"b  c #270944",
"n  c #370045",
"m  c #3B0145",
"M  c #330349",
"N  c #3D024D",
"B  c #360C48",
"V  c #250454",
"C  c #2B0254",
"Z  c #230A52",
"A  c #22035A",
"S  c #2C045D",
"D  c #210B5C",
"F  c #330054",
"G  c #3B0253",
"H  c #34025B",
"J  c #3D075A",
"K  c #371E45",
"L  c #1C0663",
"P  c #140A63",
"I  c #1B0C64",
"U  c #170567",
"Y  c #1B0273",
"T  c #1D0A73",
"R  c #1D027C",
"E  c #1B0A78",
"W  c #220262",
"Q  c #2A0362",
"!  c #24036A",
"~  c #2B046C",
"^  c #240A6C",
"/  c #2C0B6E",
"(  c #270963",
")  c #330063",
"_  c #3B0264",
"`  c #320964",
"'  c #3B016E",
"]  c #37076A",
"[  c #250373",
"{  c #2A0473",
"}  c #220975",
"|  c #23057E",
" . c #2C027B",
".. c #23097D",
"X. c #2E0A7D",
"o. c #3C0275",
"O. c #33047D",
"+. c #3C047D",
"@. c #3A0A7C",
"#. c #350872",
"$. c #36107F",
"%. c #281072",
"&. c #420444",
"*. c #4A054A",
"=. c #580549",
"-. c #4A0B5B",
";. c #470658",
":. c #5D0054",
">. c #57085A",
",. c #5F115C",
"<. c #630049",
"1. c #690B46",
"2. c #7A0B4B",
"3. c #600B54",
"4. c #6E0459",
"5. c #65065A",
"6. c #7A0156",
"7. c #7B015D",
"8. c #76065B",
"9. c #6D1350",
"0. c #632053",
"q. c #792C5A",
"w. c #460162",
"e. c #4B0163",
"r. c #43056B",
"t. c #46056F",
"y. c #550061",
"u. c #5B0063",
"i. c #5C0B66",
"p. c #55046B",
"a. c #58096B",
"s. c #58126D",
"d. c #430175",
"f. c #430B74",
"g. c #44037C",
"h. c #4C027B",
"j. c #4C0978",
"k. c #5B0A76",
"l. c #5A0479",
"z. c #5A0C7B",
"x. c #540576",
"c. c #4D1176",
"v. c #591B78",
"b. c #610166",
"n. c #6D0064",
"m. c #660969",
"M. c #7B0D64",
"N. c #780768",
"B. c #671668",
"V. c #761568",
"C. c #630D7C",
"Z. c #680B72",
"A. c #750173",
"S. c #7B047B",
"D. c #730F7A",
"F. c #7B0C79",
"G. c #641172",
"H. c #69137D",
"J. c #6C1D79",
"K. c #6E1476",
"L. c #711176",
"P. c #71147F",
"I. c #7A2474",
"U. c #6D2E69",
"Y. c #714673",
"T. c #850A45",
"R. c #8B045C",
"E. c #830457",
"W. c #98065A",
"Q. c #851259",
"!. c #971758",
"~. c #8B114C",
"^. c #A7075B",
"/. c #AA1A5E",
"(. c #B7125A",
"). c #B40D55",
"_. c #870864",
"`. c #950D61",
"'. c #9C0E63",
"]. c #8A1566",
"[. c #861A69",
"{. c #991A6B",
"}. c #870677",
"|. c #851974",
" X c #961976",
".X c #AA0E68",
"XX c #A71368",
"oX c #A81975",
"OX c #87287B",
"+X c #8A2D74",
"@X c #98257C",
"#X c #94226B",
"$X c #AC227B",
"%X c #B72472",
"&X c #A1236D",
"*X c #C00F5D",
"=X c #C11D66",
"-X c #C4246D",
";X c #CB2471",
":X c #C62478",
">X c #1D028D",
",X c #230483",
"<X c #2A0284",
"1X c #2A0A83",
"2X c #2C0289",
"3X c #2C098C",
"4X c #250789",
"5X c #320382",
"6X c #3A0382",
"7X c #330983",
"8X c #3C0983",
"9X c #34038D",
"0X c #320888",
"qX c #2D0294",
"wX c #2C0A93",
"eX c #2A0B9A",
"rX c #230895",
"tX c #370697",
"yX c #410382",
"uX c #4B0B81",
"iX c #42058B",
"pX c #4A0586",
"aX c #53018D",
"sX c #590687",
"dX c #4C108C",
"fX c #42059A",
"gX c #4A0794",
"hX c #510292",
"jX c #510993",
"kX c #5A0793",
"lX c #431091",
"zX c #5C1291",
"xX c #6C0983",
"cX c #680688",
"vX c #790785",
"bX c #681489",
"nX c #711485",
"mX c #610D94",
"MX c #6A0A9A",
"NX c #641695",
"BX c #740D99",
"VX c #740EA9",
"CX c #800786",
"ZX c #B23188",
/* pixels */
"aXsXG.B.5 - U.Y.q.6 ; , I [ g.p.:.Q.).~.F [ 6XuXw.5.^.(.W.<.yXqX",
"sXbXZ.V.9.- 2 Y.0.3 1 < A ~ d.k.>.6.)./.;.~ 6XuXa.:.W.(./.6.g.qX",
"k.nXG.V.q.6   K B > 4 B z S ' z.p.6.*X-X>.Q +.pXk.:.R..X-XR.o.qX",
"a.P.P.|.[.7   o % z &.4 < M _ j.C.4.(.;X:.V o.pXC.5.7.XX;X`.' wX",
"i.L.F. X X5 O X t V N *.3 1 H c.bXn.^.-X3.x ' g.xXA.7.XX-X'.) 3X",
"e.K.F.}.ZX<.O i f ` G >.7 3 v ] bXA.W.%X=.z S o.xX}.4.'.%X`.) 3X",
"F J.|.].ZX8.$ w h ` w.>.1.3 > Z z.S.R.&X*.r c ) cXvXn.R.%X6.) ..",
"V v.OX].ZX8.$ l S o.t.>.8 7 1 : a.D.6.#XM y e C l.vXN._.$X<.Q E ",
"V v.+XM.ZX=.e g ~ o.h.y.2.8 4 * G B.V.,.v g t t ' H.N.N.$X&.W E ",
"h ` U.+XOXn e d ~ g.h.u.T.T.6 = , N ;.m v A f t C c.L.V.V.n W E ",
"h C V.+Xi., b c / yXuXu.E.!.8 ; & z z z C S ( j t S Z.G.N z ! } ",
"h Z *.-.x c B % ~ 8XuXb.E.!.2.3 , y e y A %.^ I s y _ _ r y W { ",
"h d z % c C B z A #.z.n.6.{.!.6 v h y d h %.{ { W s d d y y h / ",
"Z d y 0 S G N G y S k.A.6.&X{.=.H W S h L T 7XX.~ k j s g t s ^ ",
"g w f s ` G G ;., x a.F.7.{.{.*.) / ( A T } 0X0X .U P l D d s I ",
"u t j I ( _ w.-.> > p.vX7. X[.N ~ X.#.( T 1X8XyX .[ P I L h s f ",
"b t P T { r.r.-.1 > e.L.N. X,.z ~ X.8XO.<X8Xh.z.O...U E } W u @ ",
"b t a T +.f.e.>.4 1 M G._.|.m % ! X.iX6X<X@.a.xX+.4XR ....T g $ ",
"Z t a T +.h.y.3.=.1 & J B.>.O $ ! X.iXiXO.@.Z.H.8X2XR ..1X[ g $ ",
"V t p ^ g.l.u.5.9.4 O & B b . $ W O.gXgXO.f.i.G.yX<X,X..1X{ L q ",
"V y p ( j.z.u.8.2.6 * o X + X $ h 8XjXjX+.c.B.n.g.<X1XR 3X1X! a ",
"D V q W f.z.u.M.Q.7 * X + @ & @ d @.jXjXo.s.M.F.g. .1X,X3X3X| U ",
"V d 9 k r.z.u._.!.8 < i r i i $ s #.hXMXh.m.].].t. .X.R wXwX,XY ",
"V d # g r.xXu._.XXT.N A d c Z t 0 Q hXVXl.Z.`.{.p.{ 1XR rXeXwX,X",
"u Z # t r.xXb.].=X^.w.~ ! S C Z e V aXVXcXA.XXoXe.~ X.,XrXrXeX9X",
"y u # e w.nXn.`.;X.Xh.9X[ / ] H $ t aXVXMXA..X'.;.! 1X<XrXeXtXtX",
"f u $ % _ D.n.XX:X_.sXtXR X.f.-.r 0 h.VXMXvXXX`.H ! 5X<XrXeXgXjX",
"f u i e H Z.E.oXoXn.sXfX| $.s.s.Z t o.mXMXvXoX6.H [ 0X2X3XtXjXmX",
"d t u 9 c i._.$XV.w.kXhX5Xc.i.B.V d Q j.NXxX@X=.A | 9X9X3XlXmXBX",
"h k j q $ &.8.@XG ) kXhXyXz.m.B.H W d ] bXbXI.M L ,XtXtX<XdXxXvX",
"h L P q o O m ;.r Q mXkXl.C.M.5._ ! q d c.zX-.r Y rXtXtX+.zXvXS.",
"h U I j X . , % t ~ NXkXl.L.].4.H ! d e H _ z y Y >XtXfX8XNXvXS."
};
