/* XPM */
static char *e789c207f1e7407fc5d8c37dbb62e8a8r9yr0jqrvNBiQMgz[] = {
/* columns rows colors chars-per-pixel */
"32 32 210 2 ",
"   c #3D383E",
".  c #5B322D",
"X  c #4C3837",
"o  c #46393D",
"O  c #4D3B3C",
"+  c #533D3D",
"@  c #593E3E",
"#  c #6D3C32",
"$  c #6D3F39",
"%  c #773E32",
"&  c #5E413C",
"*  c #694234",
"=  c #63423E",
"-  c #6F433B",
";  c #7D4937",
":  c #75453C",
">  c #7B463C",
",  c #443C43",
"<  c #483F43",
"1  c #543F40",
"2  c #4B4349",
"3  c #534244",
"4  c #5B4344",
"5  c #54464A",
"6  c #5C4648",
"7  c #5B494B",
"8  c #5C4A4C",
"9  c #4D4A54",
"0  c #534B53",
"q  c #5A4C51",
"w  c #5D5155",
"e  c #575258",
"r  c #614746",
"t  c #6B4541",
"y  c #6C4944",
"u  c #634F4D",
"i  c #6B4E4C",
"p  c #734C46",
"a  c #7D4D46",
"s  c #734E4A",
"d  c #7B4F49",
"f  c #75514D",
"g  c #7C514B",
"h  c #604F53",
"j  c #645254",
"k  c #62555B",
"l  c #6A595B",
"z  c #755755",
"x  c #7A5550",
"c  c #7A5954",
"v  c #7E615F",
"b  c #685F67",
"n  c #6C6368",
"m  c #786163",
"M  c #9C4524",
"N  c #8B4432",
"B  c #8E4C3D",
"V  c #994E3B",
"C  c #9B513D",
"Z  c #AC4A2C",
"A  c #B24D2F",
"S  c #BF5A2D",
"D  c #A1543E",
"F  c #AD553C",
"G  c #B65439",
"H  c #B3583E",
"J  c #BD5B3C",
"K  c #DB5D2A",
"L  c #C8583D",
"P  c #E55E2C",
"I  c #EB5E2D",
"U  c #DF632D",
"Y  c #D96131",
"T  c #DE633A",
"R  c #DA6A3F",
"E  c #EC612E",
"W  c #E9692E",
"Q  c #F3642E",
"!  c #F36B2E",
"~  c #ED6131",
"^  c #EA6B35",
"/  c #E8673A",
"(  c #E46B3E",
")  c #EA6D3B",
"_  c #F36431",
"`  c #F56A37",
"'  c #F46E34",
"]  c #FD6934",
"[  c #FE6B3A",
"{  c #FC7035",
"}  c #F2713C",
"|  c #FF743D",
" . c #FF783E",
".. c #864D43",
"X. c #8C4E45",
"o. c #934F40",
"O. c #835246",
"+. c #8C5244",
"@. c #82544B",
"#. c #89534A",
"$. c #845A4E",
"%. c #945342",
"&. c #9B5746",
"*. c #955649",
"=. c #935A4E",
"-. c #995C4C",
";. c #855C54",
":. c #8D5D52",
">. c #8E5B55",
",. c #805F5C",
"<. c #935E54",
"1. c #9A5F52",
"2. c #A45642",
"3. c #A55A47",
"4. c #AA5A46",
"5. c #AE5D4A",
"6. c #B45C43",
"7. c #B35945",
"8. c #BD5C42",
"9. c #BB5F49",
"0. c #96624F",
"q. c #9B614A",
"w. c #876059",
"e. c #8C635C",
"r. c #946157",
"t. c #9D6454",
"y. c #93645B",
"u. c #98675B",
"i. c #9E6959",
"p. c #A6624A",
"a. c #B86647",
"s. c #B7634C",
"d. c #BC644B",
"f. c #BC6B4A",
"g. c #A36656",
"h. c #AD6351",
"j. c #B36551",
"k. c #B96953",
"l. c #B96E56",
"z. c #876563",
"x. c #8B6662",
"c. c #946A64",
"v. c #CD5D44",
"b. c #D65F45",
"n. c #C46445",
"m. c #CA6243",
"M. c #C76846",
"N. c #C5654A",
"B. c #C46B4C",
"V. c #CA6B4D",
"C. c #D36945",
"Z. c #DB6C46",
"A. c #D36B4B",
"S. c #DC6D4D",
"D. c #C3704B",
"F. c #C8744F",
"G. c #DE7344",
"H. c #DC724C",
"J. c #C46751",
"K. c #C56C52",
"L. c #CB6B51",
"P. c #CC7253",
"I. c #C87358",
"U. c #DA7452",
"Y. c #D67B56",
"T. c #DB7855",
"R. c #D6795C",
"E. c #E26343",
"W. c #E46B44",
"Q. c #EB6A44",
"!. c #E46C49",
"~. c #EB6C49",
"^. c #F46C44",
"/. c #FB6D43",
"(. c #F46F49",
"). c #E4734C",
"_. c #EA7249",
"`. c #EA754B",
"'. c #F47244",
"]. c #FE7443",
"[. c #FF7B44",
"{. c #F5744B",
"}. c #FD754B",
"|. c #F57C49",
" X c #FE7C4C",
".X c #E47552",
"XX c #EA7557",
"oX c #E77954",
"OX c #EC7B53",
"+X c #E7795C",
"@X c #EA7B5B",
"#X c #F67553",
"$X c #FB7652",
"%X c #FE7D54",
"&X c #F97758",
"*X c #FD7D5A",
"=X c #FF8046",
"-X c #FF824C",
";X c #EF8459",
":X c #F68553",
">X c #FF8353",
",X c #FF8A54",
"<X c #FF8D55",
"1X c #F08159",
"2X c #FE8159",
"3X c #FF845B",
"4X c #FF855E",
"5X c #FF895B",
"6X c #DF8060",
"7X c #FF8761",
/* pixels */
"W ; ).>X3X,X-X,X<XD.=.%X,X>X2X*X*X*X#.N.*X$X#X#X{.{.Z.t b.E.T v.",
"^ ; .X3X:X,X,X,X<XF.=.>X>X%X2X*X%X*XO.L.*X&X&X#X}.{.Z.p b.E.b.v.",
"! ; OX5X,X,X,X,X<XF.=.2X>X>X>X4X%X*X+.L.*X&X&X$X}. X!.p b.E.b.v.",
"S * a.B.B.a.f.f.f.q.f s.a.d.d.d.J.J.s *.9.7.5.5.6.6.%.5 > : $ $ ",
"O 5 3 1 2 < 5 5 q q w q q 9 w k k k k k w 0 0 k h q q q r r , , ",
"Z.Z.!.~.%.t..X+X+X+X+X@XT.c U.OXOX@XOXOXOXk.;.XXXXXXXX.X~.~...g ",
"^.(./.}.3.s.>X>X2X4X4X4X1X;.OX>X%X%X X-X-XF.<.4X*X$X$X}.}.'.+.X.",
"/.{.}.}.3.j.>X>X4X4X3X7X;X;.OX>X%X%X>X-X-XF.<.*X%X$X X}.].| &.X.",
"^.^.(.].3.k.>X,X>X2X2X4X;Xw.`.-X%X*X2X>X>XK.<.*X*X$X{.'.'.} +...",
"# - : > 4 6 @.g @.@.@.;.$.q p d f f f g @.f w z x s y y - & , 2 ",
"p 2 i $.$.0.:.;.:.w.b r.y.c.y.y.u.u.l w.y.<.y.>.>.<.;.q >.*...@.",
"` ..A. X[.-X X X XT.i.-X>X4X4X>X3X>Xt.P.%X%X*X*X*X%X~.d ~./.~.W.",
"/.O.C.[.[.-X X-X>XT.i.-X,X4X2X>X3X3Xi.P.%X%X*X*X%X%X~.d Q./.~.E.",
"/.#.C.[.[.=X-X>X>XT.0.-X,X3X2X,X>X,Xg.P.>X%X>X%X%X X{...Q./.^.^.",
"T a a.W.G.( G.G.H.f.g G.G.H.H.H.H..X:.s..X).H.Z.Z.R L t v.v.7.7.",
"1 9 0 7 w w 7 5 6 7 w u 8 k l u j j e w 8 7 q 8 6 3 1 , , X , , ",
"N.J.V.L.<.h.U.U.H.T.H.6XI.m R.6X6XR.R.Y.Y.i.w.U.U.A.S.A.A.C.p o.",
"}.}.}.%X5.n. X-X-X=X=X-XOXe.:X5X5X3X:X-X-Xl.p.[. X[. X].].| X.D ",
"}.}.}.%Xh.N.[.=X=X=X=X=XoXw.:X,X>X>X,X X-Xl.g.-X>X X X X}.| +.C ",
"(.$X}.$Xj.M. . .=X=X .=X`.w.|.,X>X>X>X>X-Xl.g.[.-X X X%X}./.+.C ",
"B o.%.%.x ;.&.%.C q.q.q.y.n r.t.i.t.1.1.g.,.v p.q.0.-.1.%.o.4 + ",
"= , r p f c v c f u e e.x.c.x.z.z.z.b n ,.,.m c c c c e i p p p ",
"^ +.m.].'.]. X}.[.A.y.>X>X%X%X>X*X>Xg.I. X X{.].].].} d C.) ) Z.",
"' %.v.].|  .[.[.[.H.r.%X X>X%X%X%X%Xt.B.[.[. . .|  .} a C.} ' ^ ",
"' B v.{  .|  . .[.H.<.$X X X%X X X X1.B.[. . .].| | ) a C.' ! ! ",
"Y > H ( / / ) ) ) V.;.!.)._.).`._._.:.d.} Q.'.Q.Q.) T - L U U U ",
"O   o & 6 6 & 2 6 q e k k k j r 8 r 9 5 r r 6 4 & @ @ o o X X X ",
"H H a.m.g @.M.M.B.L.P.I.I.l K.V.L.L.L.n.n.-.s N.n.d.9.6.4.F - & ",
"~ _ ] [ D 2.| | [.].[. X|.@.~.].}.}.].]. .v.O.[ ] ] ] Q E E N % ",
"P I Q ] C 3. .| ].].[.[.{.@.!.].}.].].].{ a...[ ] ] Q Q E E N % ",
"K P E ] V D | | ].].]. X{.g Q.]././.].| ] L ..[ ] ] _ ~ I I N % ",
"M M Z A : : F F H H H 6.6.u 4.8.J J J J J V t G A A A Z Z Z # . "
};
