/* XPM */
static char *c40938de15404d86f7347a3f85c2d0baQLUDn5dZjnn3BZtf[] = {
/* columns rows colors chars-per-pixel */
"32 32 175 2 ",
"   c #01011E",
".  c #0A021B",
"X  c #1B0E1D",
"o  c #1E111B",
"O  c #21111C",
"+  c #2D1F1F",
"@  c #362A1E",
"#  c #010224",
"$  c #0A0425",
"%  c #030921",
"&  c #0D0924",
"*  c #03022A",
"=  c #0B032A",
"-  c #0A0929",
";  c #110625",
":  c #130A23",
">  c #1D0E22",
",  c #150728",
"<  c #141021",
"1  c #1B1123",
"2  c #180C30",
"3  c #231425",
"4  c #241C26",
"5  c #2B1B23",
"6  c #251D2A",
"7  c #2A1C2B",
"8  c #271C32",
"9  c #281A31",
"0  c #291C3A",
"q  c #272123",
"w  c #26252D",
"e  c #2C2329",
"r  c #362D26",
"t  c #3A2A24",
"y  c #31242E",
"u  c #33282E",
"i  c #3B2A2B",
"p  c #2D203A",
"a  c #382632",
"s  c #322C30",
"d  c #3C2831",
"f  c #3B3234",
"g  c #4B3C27",
"h  c #4A362D",
"j  c #4D3C2C",
"k  c #5B3E26",
"l  c #533E2B",
"z  c #5B3E2B",
"x  c #443334",
"c  c #4B3537",
"v  c #4D3A33",
"b  c #4C333A",
"n  c #503D36",
"m  c #564227",
"M  c #5C4426",
"N  c #55442C",
"B  c #5D442C",
"V  c #5D4A2E",
"C  c #554433",
"Z  c #5B4533",
"A  c #5D4A32",
"S  c #53433A",
"D  c #5B463A",
"F  c #56493B",
"G  c #5C4A3A",
"H  c #5F5033",
"J  c #614424",
"K  c #61442D",
"L  c #644C2D",
"P  c #6A4C2D",
"I  c #6C5825",
"U  c #66532C",
"Y  c #6C542C",
"T  c #6D592F",
"R  c #745B26",
"E  c #71552D",
"W  c #735A2A",
"Q  c #795A2C",
"!  c #684736",
"~  c #634C33",
"^  c #6B4D34",
"/  c #634C3A",
"(  c #6D4F3A",
")  c #645133",
"_  c #6C5435",
"`  c #6D5A33",
"'  c #635139",
"]  c #6D543B",
"[  c #6E5939",
"{  c #715534",
"}  c #735B35",
"|  c #795C35",
" . c #71553B",
".. c #765F3D",
"X. c #765F3F",
"o. c #745D3D",
"O. c #745C3B",
"+. c #785B39",
"@. c #7D5C39",
"#. c #795F3E",
"$. c #7B5D3B",
"%. c #766136",
"&. c #776237",
"*. c #756534",
"=. c #766436",
"-. c #766335",
";. c #7C6434",
":. c #76623D",
">. c #75633D",
",. c #77643C",
"<. c #74623C",
"1. c #796038",
"2. c #7B643B",
"3. c #7D663A",
"4. c #7A623C",
"5. c #79613F",
"6. c #7A673F",
"7. c #7C643E",
"8. c #7C663F",
"9. c #7B633C",
"0. c #77683F",
"q. c #7F6B39",
"w. c #7D6A3D",
"e. c #675642",
"r. c #6B5A45",
"t. c #6A594B",
"y. c #725A40",
"u. c #745A41",
"i. c #735B42",
"p. c #7B5D42",
"a. c #705E54",
"s. c #776041",
"d. c #776340",
"f. c #746045",
"g. c #7D6541",
"h. c #7E6642",
"j. c #796445",
"k. c #7E6547",
"l. c #7C6542",
"z. c #7E6B40",
"x. c #7D6942",
"c. c #7C6748",
"v. c #805C3C",
"b. c #805E38",
"n. c #806F37",
"m. c #82623B",
"M. c #816D3D",
"N. c #82713D",
"B. c #8C793F",
"V. c #846441",
"C. c #816A41",
"Z. c #816C41",
"A. c #816E43",
"S. c #836D44",
"D. c #856F46",
"F. c #826C42",
"G. c #836D4B",
"H. c #8A6E49",
"J. c #847146",
"K. c #877247",
"L. c #857343",
"P. c #887346",
"I. c #8C7647",
"U. c #8B7545",
"Y. c #8A7944",
"T. c #857149",
"R. c #887148",
"E. c #8C754B",
"W. c #88704C",
"Q. c #8D774E",
"!. c #8D7A4F",
"~. c #8F794C",
"^. c #907C49",
"/. c #8A6F51",
"(. c #8D7954",
/* pixels */
"C G C G D Z V G V V C D G G C ~ A G ~ C F C A G G A Z Z / D A v ",
"' ` O.U ` U [ [ ] ] (  .[ [ _ / ' _ [ } ] [  .{ [ ` U Y _ [ } A ",
") ~ } E._ R.M.^ P.C.R ^.O.[ !.1.,.Q._ } B.I D.P.L q.R.O.E.O.) U ",
"~ ] } 2._ l.} ~ =.,.[ 6.` L 2.1.%.4.L { 2.O.:.%./ } l.] O._ y.~ ",
"~ A.O.^ { Y _ }  .( ] _ _ o.[ } ` _ +._ { ] _ ] O._ U T _ p.w.A ",
"V J.O.u.8.3.} } | P ~ h S 6 p q 6 8 4 F g A P Y ..5.| 3._ ..A.G ",
"V _ _ +. .+.} M C X = $ $   * #   =   - - = X N z } #. .O.Y _ A ",
"' s.} } +.| Y ! 4 # *   # -   # # # * #   * # 7 ^ Y +.| } O.5.A ",
"L H.i.[ Q @.L s =   # # *   # # * % # *   # * $ u K v.R O.f.D.~ ",
"A w.} O.+.P v . # # # #   # * & : * # = * # # # . v P 7...O.w.B ",
"~ %.| O.M Z 1 - # # # # * = 7 N N e       # * # - > Z K { } 5.A ",
"' L K } ~ d #   * # *   % O ^ M B P 3 #   * # #     d ~ *.K V ' ",
"G S.i.E j . * #   - # * . G V.U _ ;.e.  = # =   #   ; j W p.c.' ",
"A ;.j.} 5 # # # = # #   t +.! | W ^ | i # # #   * # # 5 _ +.w.V ",
"A L.g.U ; #   . w : ; > B ;.^ m.b.( +.Z > # & w & # # : L s.L.V ",
"L r. .A = *   a ~ @ b B M ~ w.Z / ;.~ k J b t L y # # = ~ O.[ A ",
"/ o._ ' = #   y L r b M B L 2.~ ! &.A M k x r ) 5 # # = ) O.[ ~ ",
"/ N.2.V , #   # 6 : = 1 B @.^ v.p.{ 1.z X = 2 4 . # * . ) 2.M.G ",
"V q.} T 4 # # * #     # t | ^ W R P @.i #   # # # * # + _ s.;.V ",
"~ z.+.U S > # *   * # # . G z._ _ m.D   * # -   # # & l { i.S.A ",
"' V ~ #.~ t . * # # * # * o ~ K K P 3 *   * # # # # x L | ! M ' ",
"r.c._ y.M M 3 * * % # % # = y m l q # =     * # # 8 z K ` { 0.A ",
"r.w.4.p.1.P h . # # * * % * * ; ; # * * # * *   ; h ^ +.O.%.z.A ",
"t.P.:._ | p.K f = #     #   # = * # # *   # # - f J $.;.T >./.B ",
"t.j.{ | } } { P 6 # *     * %   # # $     * = 7 ^ P | | } } O.~ ",
"r._ ~ O.} | } z N o = $ # # * # # * # & # - o N M Q p. .5._ ) V ",
"e.Y.<.i.3.1.O.} { P ' j F 7 0 6 e 8 7 F l A L { +.{ 1.z. .s.L.V ",
"t.w.O.L Y ) _ { _ _  .{ W } _ T T ] ..Y O.] ^ ] O._ U Y ~ O.M.~ ",
"r.O.] V.} c.} / *.j.o.g._ L m.O.} V.L O.z.O.,.*./ %.G._ 8.} y./ ",
"r.) } E.Y T.w.) T.G.T Y.} [ (.:.-.^.U O.B.I G.G.~ A.R.T P.} V ^ ",
"a.[ O.) ` [ [ [ { { _ ` [ ` _ _ ' ] [ O.] ] _ ` i.[ T U _ <.` ' ",
"S V D F N C C Z F N C F C G D Z N C A C D C N C A C C C S S A v "
};
