/* XPM */
static char *_2354752368e4b71c53f82828f5f791ffUYVKmZ0gdBk5qgN[] = {
/* columns rows colors chars-per-pixel */
"32 32 190 2 ",
"   c #010101",
".  c #151515",
"X  c #2E1E1E",
"o  c #242424",
"O  c #2B2B2B",
"+  c #3B2929",
"@  c #2E2E32",
"#  c #2F3434",
"$  c #343434",
"%  c #353A3A",
"&  c #3C3C3C",
"*  c #3F3636",
"=  c #5C1808",
"-  c #6F0E11",
";  c #6D3700",
":  c #713801",
">  c #7B1F22",
",  c #413321",
"<  c #443737",
"1  c #5B2D2D",
"2  c #6B2826",
"3  c #7E2D30",
"4  c #753838",
"5  c #744A0D",
"6  c #6F5215",
"7  c #725417",
"8  c #725518",
"9  c #775C26",
"0  c #3E4242",
"q  c #434343",
"w  c #4B4342",
"e  c #474A4A",
"r  c #4B4B4B",
"t  c #4D4E44",
"y  c #574546",
"u  c #4D5050",
"i  c #535353",
"p  c #5C5151",
"a  c #575B5B",
"s  c #5B5B5B",
"d  c #604E4E",
"f  c #6A4042",
"g  c #655454",
"h  c #6A5656",
"j  c #695A5A",
"k  c #625B5B",
"l  c #765656",
"z  c #5E6364",
"x  c #636464",
"c  c #6B6464",
"v  c #6C6C6C",
"b  c #67686A",
"n  c #7E6868",
"m  c #7C7B69",
"M  c #6D6F71",
"N  c #706F71",
"B  c #6B7070",
"V  c #727373",
"C  c #7C7374",
"Z  c #7B7B7B",
"A  c #797979",
"S  c #840000",
"D  c #960101",
"F  c #9A0203",
"G  c #861A00",
"H  c #831C1F",
"J  c #A30606",
"K  c #AC0101",
"L  c #AD0808",
"P  c #A60A0A",
"I  c #BA0000",
"U  c #B40506",
"Y  c #A71717",
"T  c #B61414",
"R  c #BB1A1A",
"E  c #8B1D20",
"W  c #8C2626",
"Q  c #942223",
"!  c #9E2020",
"~  c #9D2D2D",
"^  c #833333",
"/  c #883939",
"(  c #963D3D",
")  c #963134",
"_  c #A32424",
"`  c #A42B2B",
"'  c #B53737",
"]  c #BC2A2A",
"[  c #C10000",
"{  c #CD0000",
"}  c #CC0808",
"|  c #DA0000",
" . c #DA1414",
".. c #D71313",
"X. c #CB1414",
"o. c #E10303",
"O. c #EE0000",
"+. c #F10000",
"@. c #F90303",
"#. c #E61C1C",
"$. c #E91C1C",
"%. c #FB1717",
"&. c #FB1919",
"*. c #F51A1A",
"=. c #C52828",
"-. c #F02F2F",
";. c #865F1E",
":. c #8C7F16",
">. c #A06F2B",
",. c #884242",
"<. c #904B4B",
"1. c #8E5454",
"2. c #955758",
"3. c #B54949",
"4. c #BB4F4F",
"5. c #A95A5A",
"6. c #82694F",
"7. c #847F56",
"8. c #A87A46",
"9. c #8C7878",
"0. c #9A6464",
"q. c #B66D6D",
"w. c #C94A4A",
"e. c #D75959",
"r. c #E64848",
"t. c #DA6565",
"y. c #D86868",
"u. c #C97777",
"i. c #E36767",
"p. c #E16868",
"a. c #94871E",
"s. c #9E822F",
"d. c #B18431",
"f. c #A89B32",
"g. c #86845E",
"h. c #BDAF46",
"j. c #B3A74A",
"k. c #BEB148",
"l. c #AAAB55",
"z. c #99996B",
"x. c #A4A272",
"c. c #CABD54",
"v. c #C6BA51",
"b. c #C6B94F",
"n. c #CFB170",
"m. c #E8C75B",
"M. c #DCD070",
"N. c #DAD066",
"B. c #E0D36A",
"V. c #7F8182",
"C. c #838484",
"Z. c #868888",
"A. c #8C8C8C",
"S. c #8E9090",
"D. c #939393",
"F. c #979898",
"G. c #9B9B9B",
"H. c #998B8B",
"J. c #AD9797",
"K. c #A19C97",
"L. c #B69E9E",
"P. c #9D9EA1",
"I. c #9FA0A3",
"U. c #A3A3A3",
"Y. c #A7AAAB",
"T. c #ACACAD",
"R. c #AAA1A1",
"E. c #B9A3A3",
"W. c #B7A8A8",
"Q. c #B8B2AF",
"!. c #ACB1B1",
"~. c #B3B3B3",
"^. c #B6B6B8",
"/. c #BCBCBC",
"(. c #C88A8A",
"). c #D19191",
"_. c #E88585",
"`. c #F58E8E",
"'. c #C3AF93",
"]. c #DFA6A6",
"[. c #C2B5B5",
"{. c #E5CA80",
"}. c #EBDC9D",
"|. c #C3C3C3",
" X c #C5C6C9",
".X c #C7C8CB",
"XX c #CCCCCC",
"oX c #D7C1C1",
"OX c #D7D8D8",
"+X c #F0F0F0",
/* pixels */
"q & 0 0 < x S.A.A.A.A.A.S.a e A V.Z V.A x % % q q q q & q & 0 < ",
"A A V g.t F.OX X.X.XXX X/.i b ^.I.I.G.G.A @ s Y.Y.Y.G.V.7.C V V ",
"^.Q.n.{.s.j.m l.c.c.c.c.k.s.f.v.h.b.v.h.f.:.f.B.N.z.x.M.}.m.'.!.",
"Y.K.8.d.;.9 2 G : 5 5 7 6 6 6 8 8 8 7 8 8 8 6 5 ; = , 9 8.>.6.S.",
"D.D.v w O z w.O.I F - - H 2.C ) ^ p f 2 > H ! U I P y V A N V.Z.",
"s a 0 O O v p.O.| [ K K { p.E.$.T j / D [ o.&.@.| L d x k s s s ",
"O O O O $ a e.O.| I K K { p.L.#.T j / D I o.&.@.| L < $ $ O o o ",
"w q 0 q & u ' +.| [ K K { p.R.#.T j / D I o.&.@.| K + q q w q e ",
"U.U.U.F.a % _ +.| [ K K } _.R.-.] j ,.F I o.&.@.| L d S.!.T.T.~.",
"U.U.U.A.u % ` +.| [ K P y.Q.U.oXQ.V p f Y o.%.@.| L g D.T.T.R.Y.",
"G.F.F.C.q $ ` +.| [ L 1.A F.D.F.A.V t 0 j =.%.@.| L g Z.G.D.Z.D.",
"S.Z.D.Z q % ' +.| [ ` k C.|.Z.i U.T.V i s 2.-.@.| L h Z.F.F.C.A.",
"S.D.A.b & 0 t.*...R h s K.G.r k Y.s o u i b y.&. .Y y x V Z C.A.",
"p i r $ O q [.E.9.p i b ~.V e k c .   . q a R.J.9.w O $ $ $ < r ",
"q i x v b a ).t.4.<.9.V XXXXb & o O $   0 V.].e.' 3 * q 0 & $ @ ",
"Z./.|.~.U.s t.%. .R 9.s b |.C.$ o @ V p v C.`.%...Y g A.D.A.A r ",
"K.~.I.G.D.z [.E.9.p x x t u r k b . o V A N W.J.n y s A.U.U.g.u ",
"U.T.F.I.S.a ).p.4.( y u A.N v  X|.O   e s z (.t.3.^ j C.G.F.Z 0 ",
"U.T.G.G.D.i w.+.| [ ( x G.OX+X+XD.. O i a C r.@.| L y x N N a % ",
"U.Y.G.G.S.r ' +.| [ T 0.G.~.XXOXG.r q 0 s 5.*.@.| J X $ $ % $ $ ",
"U.T.G.G.Z.% _ +.| I K =.q.D.I.Y.F.k q w <. .&.@.| K y V.P.G.Z w ",
"G.T.G.I.V @ ! O.| [ K K X.(.T._.u.v l Q U o.&.@.| U g I. X/.A & ",
"S.Y.F.g.s O _ +.| [ K K { p.L.#.T j / D I o.&.@.| L g A.I.G.x $ ",
"M Z.V a % @ ! O.| [ K K { p.L.#.T j / D I o.&.@.| L h C.F.S.x @ ",
"e & $ @ O % Y +.| I K K { p.L.#.T j / F I o.&.@.| L g V.A.Z.s @ ",
"s Z A v r r ! +.| [ K K { p.L.#.T h / F I o.&.@.| L g A Z Z i O ",
"V.|./. X/.Y.w.+.| [ K K { p.L.#.T j / F I o.&.@.| K + $ $ $ O $ ",
"C./.P.P.U.!.y.| } U J F [ t.J.#.T g 4 S K | &.@.| J X @ @ @ & r ",
"C.T.F.A.D.D.H.n l c l g 4 l c ^ 2 < w + 1 W ~ ! W 2 i Z.g.V z u ",
"N x i r u i i r r r u r e e e q % O b Z.V M z B Z.Z.G.R.T.Y.C.q ",
"e $ O O O O o O O O o O o O O O o O r i r e q b Z V V V V N i & ",
"& * $ $ $ $ O O @ O O O O O O O O O $ & @ o O $ @ o o o o o o @ "
};
