/* XPM */
static char *f12164eab9174c5cc322b2e166bc0a38VyaNOB6fWBwYqu1b[] = {
/* columns rows colors chars-per-pixel */
"64 64 256 2 ",
"   c #020201",
".  c #0B0202",
"X  c #010A01",
"o  c #0C0C02",
"O  c #02020B",
"+  c #0A010A",
"@  c #0B0909",
"#  c #04090A",
"$  c #140202",
"%  c #1A0302",
"&  c #120A01",
"*  c #1B0A03",
"=  c #14020B",
"-  c #1A030B",
";  c #190A0B",
":  c #050018",
">  c #170011",
",  c #230302",
"<  c #2B0402",
"1  c #230A02",
"2  c #2C0B03",
"3  c #25040B",
"4  c #2B050B",
"5  c #270A0D",
"6  c #330503",
"7  c #3C0502",
"8  c #340B03",
"9  c #3B0B04",
"0  c #340B0B",
"q  c #3C0B0B",
"w  c #34050B",
"e  c #2C1103",
"r  c #38100A",
"t  c #280713",
"y  c #3C0513",
"u  c #370914",
"i  c #420502",
"p  c #420B02",
"a  c #4D0B01",
"s  c #4A0C0E",
"d  c #46060A",
"f  c #540B02",
"g  c #520A0C",
"h  c #5C0B0B",
"j  c #570606",
"k  c #4A1209",
"l  c #581306",
"z  c #440B13",
"x  c #4B0B12",
"c  c #490413",
"v  c #530D13",
"b  c #5B0B15",
"n  c #560617",
"m  c #491213",
"M  c #581416",
"N  c #630604",
"B  c #630C05",
"V  c #640C0A",
"C  c #6A0D0B",
"Z  c #670809",
"A  c #730C03",
"S  c #730C0B",
"D  c #7D0C0C",
"F  c #7B0C03",
"G  c #6C120B",
"H  c #661407",
"J  c #7C140C",
"K  c #761408",
"L  c #640C12",
"P  c #6B0B13",
"I  c #690B1A",
"U  c #740D14",
"Y  c #7C0C15",
"T  c #7E0C1C",
"R  c #770717",
"E  c #671316",
"W  c #741213",
"Q  c #7B1213",
"!  c #7A1419",
"~  c #580A22",
"^  c #780C22",
"/  c #791425",
"(  c #6C0C24",
")  c #850B0B",
"_  c #960E0A",
"`  c #84120C",
"'  c #8C130D",
"]  c #88160C",
"[  c #94120D",
"{  c #97160B",
"}  c #840D13",
"|  c #840D1A",
" . c #8C0D1B",
".. c #8B0913",
"X. c #940D14",
"o. c #970B19",
"O. c #851413",
"+. c #8C1314",
"@. c #84121B",
"#. c #8C121C",
"$. c #8A1A17",
"%. c #941413",
"&. c #9B1414",
"*. c #93131B",
"=. c #9C141B",
"-. c #961B18",
";. c #A90B0A",
":. c #A3150D",
">. c #A8150A",
",. c #B8160D",
"<. c #AB0D1A",
"1. c #A50C17",
"2. c #B60E19",
"3. c #A21414",
"4. c #AB1514",
"5. c #A31B14",
"6. c #AC1A15",
"7. c #A4131C",
"8. c #AB141C",
"9. c #A21B1B",
"0. c #AC1A1B",
"q. c #B31513",
"w. c #BB1514",
"e. c #B41C15",
"r. c #BC1A14",
"t. c #B4141B",
"y. c #BB141C",
"u. c #B41B1A",
"i. c #BD1B1C",
"p. c #B80C0D",
"a. c #932211",
"s. c #A72017",
"d. c #BB221C",
"f. c #880D23",
"g. c #940C23",
"h. c #891523",
"j. c #9C1322",
"k. c #9B1429",
"l. c #931721",
"z. c #A60D23",
"x. c #B50E26",
"c. c #A31323",
"v. c #AC1923",
"b. c #A91527",
"n. c #B31422",
"m. c #BC1523",
"M. c #B51A23",
"N. c #BB1923",
"B. c #BC152A",
"V. c #B5182A",
"C. c #B91A32",
"Z. c #9E202C",
"A. c #B92327",
"S. c #C4190B",
"D. c #C70D1A",
"F. c #C31514",
"G. c #CC1415",
"H. c #C41A14",
"J. c #C4141C",
"K. c #CC151B",
"L. c #C31A1C",
"P. c #CB1B1C",
"I. c #CB1A14",
"U. c #D31A13",
"Y. c #DC1B15",
"T. c #D2161B",
"R. c #DB161D",
"E. c #D41B1D",
"W. c #DD1B1D",
"Q. c #D61316",
"!. c #D3130C",
"~. c #E4151D",
"^. c #EC151D",
"/. c #E31B1D",
"(. c #EB1B1D",
"). c #E41A16",
"_. c #FE161D",
"`. c #F31C1D",
"'. c #FD1C1D",
"]. c #F71919",
"[. c #E70F1A",
"{. c #C7221A",
"}. c #D2221C",
"|. c #DC211B",
" X c #E4221B",
".X c #EA211A",
"XX c #F3221C",
"oX c #FE221D",
"OX c #F72519",
"+X c #C40E25",
"@X c #D60D24",
"#X c #C41523",
"$X c #CC1423",
"%X c #C31B23",
"&X c #CB1B23",
"*X c #C4142A",
"=X c #C51B2B",
"-X c #CD1C2B",
";X c #CC1228",
":X c #D41523",
">X c #DB1523",
",X c #D41B23",
"<X c #DC1C23",
"1X c #D5142B",
"2X c #D31A2A",
"3X c #DC1B2A",
"4X c #DD1629",
"5X c #CA1832",
"6X c #DD1C32",
"7X c #D71836",
"8X c #E41524",
"9X c #EC1523",
"0X c #E41C23",
"qX c #EB1C24",
"wX c #E4132B",
"eX c #EB162A",
"rX c #E41C2B",
"tX c #EC1C2A",
"yX c #F41623",
"uX c #FC1524",
"iX c #F31B24",
"pX c #FC1C24",
"aX c #F4152B",
"sX c #FD162A",
"dX c #F31C2A",
"fX c #FD1C2B",
"gX c #EB1D33",
"hX c #E61936",
"jX c #FE1533",
"kX c #F31B33",
"lX c #FE1C33",
"zX c #FA1837",
"xX c #EA0F25",
"cX c #CC2223",
"vX c #D62222",
"bX c #DB2224",
"nX c #DB222B",
"mX c #DB2629",
"MX c #D62630",
"NX c #E42124",
"BX c #EB2125",
"VX c #E4232A",
"CX c #ED222A",
"ZX c #EA2A2B",
"AX c #F32224",
"SX c #FE2224",
"DX c #F4222B",
"FX c #FD222C",
"GX c #FF282B",
"HX c #F62926",
"JX c #E92332",
"KX c #F42332",
"LX c #FE2333",
"PX c #FC2737",
"IX c #E11641",
"UX c #FF2941",
/* pixels */
"qXqXiXqXqXNXqXW.VX`.5.$XFXi.p <XfX@.p pXlXB k.BX>Xh.U.T 6XU.P u iX,X  7 uX) X @.oXd O 5.y.u s f m V b   n i.o : { B.  O t.z @   ",
"qXqXqXqXqXqX/.R.qXkX5.Q.kXtXr.eX#X).0Xj.I '.pX$ Y GX,.  8.LXE % rX1Xl / g.l.' f.@ o.U., O R.G.+ . LXV   s b.* % c u 8 2   = j 2 ",
"qXqXqXqXqXqXqX0X}.1XuXpX` y.pX2Xi  XLX+.Q pX0X&.#Xv.r.%X*X8 L.sX6 . FX2XO 8 lX=.  =.wXh 4 F S I D , 2 H.V   n 4X% X #.x.  O o.7 ",
"/.qXqXqXqXBXBXqXE.W.qX9X,XVX&XrXiX>X} ).LXP t SX'.  R oXL.  J.DX@.M D.%.-.8.6 B (.U O +.fX=   3X=X  % e.b   k h 8 f 4 + j E     ",
"0X0X0XqX(.qXqXqXaXAXd.t.FXdXF q.LX;XR eXNXH.M.T.t.%X6Xc :.FX9.. $XOX< . AXzX  g rX%.8 f.G T @.d t { <.. > kXh X b 6X  + U )     ",
"NXqXqX0XqX0XqXqXqX^.qXCXE.~.fXCX' }.FXG.q qXpXI 0 SXpXu ] `.=X~ P.' 5XM.Y 0 rXI.  7 LXU . { PX4 O e.1., < Y n j V O k { X   T 7.",
"qX0XqXqXqXqXqXqXBXqXqXiXG.i.DXtX<.P.0X~.b.eXS.3X9X*.J uXBX  #.fX=.X m.yXv % qXH.q f.] *.o.) % | 8Xo $ i.7X    zXj O v >.0   d a ",
"qX/./.qXqXqXqXqXBX8XqX0XiXCXK.E.dXqXO.e.HX#X6 W.HX+.b sXNXh.>.L.F.%Xz.q I.'.q : jX X  3 PXT $ O.R.m 3 ) Z H P 1 0 ;.q $ c MX  O ",
"0XqX0X0X0XCX0XqXNXqX~./.0XqX>XG.sXNX4XeXd.0XdX,X| ).LXP w SXKX  U AXy.  M.aXJ h t.X.*.3.2 U ).| O ' lX    &X;X  . %XB O q V 5 z ",
"G.qXaXtX0XtXtXqX(.qXBXDXqX<X0XCXw.6.AX(.G n.CX,Xx <XGX0.z.R.e.L.K.v l.uX=.. C.lX3   FXrXO q ,X@.6  .G ! P V * c.$.+ $ kXf % j rX",
"iXbXE.qXyX9X8XqXiXqX0XiXqX0XrXCX0XE.0XwXsX9X{ P.pX7X<  XpXP ; fX.X, h.'.$Xx =.4.8.b.U j E.=X- 8 ]./   ) GX$ # <.4.> 4 V x y g . ",
"dXbXP.0XyX9X/.tXNXqX^./.0XtXqXR.8XfXy.&.GXDX` p.AX(.3.,XcXQ.6X%.@.sXsX  | FX:.  r.FXw   ).4Xc C l.Y ) J < o.#X1   P.J.X . zXp . ",
"F.qXyX0XE.NXqXtX/.qXiXqXqXdXqX0XCX3X(.(.$X$XFXlXL 7.PX$X  dXSX| 8 dXrXW t.c.C.y.<.2 A.AXd   `.NX  , UXD   T ,Xi @ f.R s f ; t -.",
"L.qXqXnXvXrX9XqXqX0X0XiXiX0XqXtXiXH.qXFXL.6.tXtXS.$X5X XqXMXZ  XfXT 0 pX(.X ( SXB.  0.iXU x b.*.' &.u g vX/ O ' lX.   :XH.  $ @X",
"DX<XT.0XqXqXR.qXqX0X/.qXqXBX0XqXE.BXkXP.'.iXN.&._.GXd :.uXA.z 9XlX3.J 1X$X{.%Xv -.pXc.+ q.ZXw   dXiX  z CXO.> U ) G G u 4 ' h.: ",
"dX0X~.0XqXqX8XtXW.qXiX0X0XqXiX0XaX9X`.,.kXlXP.3XrX,XiXBXg.F.pXL.4 ).oXM % uXFX. A SXn.9 L.=.1.8.Q y :XH.  7 GXG O F LX,   m.&.o ",
"4.q.fX.Xu.eXiXtX}.iXqX/.iXsXqX0XqX/.iXsXqXH.,XLX3.] FXdXG m.dX8Xg.Y.r.&X@X9.! pX/.. S LXc.O m.fXu   }.P.5 h { } S B ; / J.;   4.",
"nX0XeX3X(.(.&X,XsXW.R.qXDXW.W.iXqXqXBX<X0X9XqX,XCXyX$Xy.fXqXl t.DXe., -XfXA 6 dXbXN x.v.>.-.4.q t.].s   LXW.  t SXR   W iX6 = T ",
"tXyXt.e.pXpX<X8X(.<XqXqX|.bXiXqX(.iX0XE.NXsXqXF.(.fXi.&.iXfX6.P.2XrXJ.2XE ,XfXE 0 KXtX  Y LX4.  t.iXj s 8.k.| O.4 I E.N   X.kX. ",
"9X,XBXNX&XJ.iXdXr.VXfX~.,XAXfX0XqXqXqX(.qX0XqX8X8XL. XFX&.&.kXlX9 >.oXP.3 rXlXX.) ,Xw.8.;XL 1.qX*.. M.pX*   iXqXO < iXQ   Y ) G ",
"K.] iXfX:X:XiXNX,X0X0XqXfXqX/.NXBXVXqXuXiX,XVXpXtXe./.fX2X$XtX0X<XaXg.I.FXB.1 Y.SXc - FXKX@ I FX8.9 V.X.$.=.R d E.F.% 5 lXg $ I ",
"DXW.wX3._.fXi.q.jX9XE.,XfXqXE.VX/.qXqX^.tXNXqXqXqXqXeX%.0XlX%.K PXVXC 4.CX>X..,XN.<XN.[ J ).>X$ Q KX[ X y.FXc X ;X%X* m z.f.a / ",
"vXDXrX-.qXNXcXdXqX8X<XbX<XqXBX0X0XqXCX0XqXiXqXW./.pXjX&XqX/.,XdX;X0.iXuXb >.HXn.+ S.SXI 4 oXlXz g.$Xt.o.z.f V.,Xz   tXK.O 4 PXS ",
"9X&.W.fX:X&.iXsXi.L.tXdXQ.R.FXyX0X/.NXqXiXqXqXqXCX,XY.pX,X{ sXfX>.) LXAXo.L.vXR.%XG. .2XKXA % GXiX  ~ dX%.X ;.LXs i q.+.! Y p P ",
"DX) vX`.bX1XrX/.tXqXE.E.sXdX{./.iX<XNXqXiXqXqXqXqXqXqX0XtXVX<XF.NX_.3.` SXjX8 +.FXe., ,XAX=.( &XL.k.D.M =.CXo.. v.sX.   dX3X+ % ",
"y.fX0XR 2XpXG.@.dXpXcX:XyXmX&XuX0XqXiX~.<XqXiX0XqXqXNXR.qXaX>X>.JXlXH.s.hXhXH.BX@.1XpXq.= /.`.N . SX].  Z zX:.o 1.%Xf.| Q s 8.M.",
"4.HXNXD.qX{.tXuXW.t.NXAXy.{.pXtXQ.qXiX0X0XqXqXqXiX0X0XqXiXrXnXVXW...yXLX..D SXsXa 3.lX,XR bX&Xt.8.%.J mXU.$ U LXQ X 7.LX3   W.,X",
"LXb O.'.JXM B.pXqX2.^.SX4XR.].rXqX8XbXNXsXqXbXdXBXW.0XfXyXE.W.DX`.J.kXY.(.<X=Xv.fXiX0 +.SX;.X }.FXb % pXyXu | L.0.X.o.M =.Q.7   ",
"`.J.:XP.,X0XpX4.,XAX,X' pXfXM.r.KXVXE.0XqXtXNXqX0XiXqX0X0XfXqXK.-X'.T.F pXFX=.D FXeX=.d.4X>XB.B.I 8X`.h y FX^.  V FXj.  >.GXz 4 ",
"7 iXlX| +.pXdX*.rX.XZX%XyXNXkXqXR.bXyXqXvX0XyXrX/.qXiXNXNXdXiXW.rX0XdXnX8X5.DX'.*.D fXBX& { oXx.o >XFX@.c E.*X-.v.v z.yX .O V.XX",
"b.W.>.rX3Xi.i.qXqXF P.LX>X_ ].zXQ.<XiXqXbX0XiX0XqXqXqXiXqXE./.sXyX%X,XAX9X$.qXSXy.M.aX).7X3X_ P.fXj.& |.LX8 . pX`.X v oXb.  { 0.",
"fXx.e NXLXX.%.lXiX&X9XT.tXVX0Xi.CXqXE.,XyXqX,X9XqXqX0XqXqXDXNXqXqXqXNXU.W.fX>XT iXAXQ l lXjX6 $.FXN.I Q.%Xi.4.j.} ,XK.  U FX..O ",
"=.8XCXr.T kXDXW ' fXdXD T.AXbX5.yXtXVX~.`.VXrX(.9X0X0XqXtXqX0X0XqXBXqXF.0XtXtXp.dX<X/.,X&X=.lXtX0 3.LX&.  R.LXc % fX<Xq Y F.6.C ",
"  >.fXy.P sXY.P.$X3X<X/.dXy.eXuXR.5.qXdX&XT.uXiX>X0XdXiX0X0XtXdXBXE.iXiXtXq.vXKX-Xl dXSXK W sX'.J p.wXmX1.&XG ,XiXn 8 uXCX+ n KX",
"wXE.Z A.pXa.g pXSX@.Q XXlX[ K.AXdXT.^.qXgX|.).<XNX0X0X0XqXtXtXqXqX0XiXqXdXT.3X0XeXU.>Xz.sXiX[ ` KXfX& | KXJ.. {.FXJ a G.=XQ 1.W ",
"GXJX6 w.pXE.z.3XJ.rXdXy.y.DXiX=.%XpXvX3.qXKXVXK.tXNX<X0XiXaXiX0X(.qXCXP.qXdXqXp.G.SXP.W fXSXm.#.^.mXy.&Xc.u.uX&.@ T.GXy . dXAX  ",
"g U lX^.; A.'.4.p ).SX-.*.DXpXy.CXR.JXdX[.P.rXiXR.0XqXqX0X0XtXdXqXqXyX/.iXVXqX<XdXC.vX'.$XW rXFXU a LXuX= *.LX7Xa $XE.5.7.=.W ).",
"k A zX3Xg.1XD.MXtX#XO.kXFX3.1.SX(.} J.pXqXL.VXFX<X0XtX0X0XqX0XqXqX0XqXDXiXE.0XdXpX7.P.XXeXv.8X9XnXU.%Xw.AXsX, %.fXk.X i.GXy + dX",
"`.fXe f LX:X& 5.fXV.P 9X`.N.m.NX/.kXaXr.3XkX~.q.dX0X,X0XtXtXqX0XqX0XqXNXiXqXqX/.}.].jXc.K.SX-Xa tXsX^ H oXsX( 6.qX$Xj.#XF i.7XD ",
"E.hXg.>.u.P.3X8XV ,XSXt.h dXpXO.%.pXNX&.R.AX0X,X0XqXqX0X0X0X0XqX/.BXqX/.9XBXqXR.0XtXdXi./.).iX2XY.u.kX]./ W fXAXX O.fX7.. 6XdX) ",
"h & kXLX, s '.tXz q.pX<Xt.Y.2XqXnXr.L.uXBX=.hX(.Y.4.kX`.W.3XqXuX0XqXqXqXqXqXqXqXiXvXE.sXDX_ u.LXN.B /.LXc.%.aX0X2.=X+.y.ZXt.; >X",
"b.A y.b.K.3Xf.O.dX/.u 5XXX=.m yXFX8.8.fXCXH.(.rXtXiX<X%XfXAXE.vXqXqXqX0XqXqXqXqXiXE.W.9XkXR.CXJ..XpX:Xl dXyXH d oX(.- o.OXm.4 J.",
"7.fXS X XXSXq Z fX).` G.-XhX2X}.X.0X`.4.b.sX'.&.-XSXW.J.dX0X9X<X0XqXqX/.qXqXqXqXnX.XqXP.vXyXiX_ K.sX6X` NXtX=X&Xn.n.rX8Xq j.SXe.",
"n.O.#XI.} n DXAXd P oXBX@ #XlXD.V FXAXi.J.rXnX(.0X$X9XpX<X{.DXtX/.qX/.qXBXqX(.qX`.lXCX/.iXrX3XiXhX+.R.pXy.a aXSXG n SXOXx *.NXK.",
"2.X } SXh.t ~.yX$.3.&Xi.tX!.$.W.sXn.h qXpX-.-.uXBX6.3XBX0X>XqX^.0X0X/.0XBXqXqXqX/.qXrX/.BXL.&XfXHX>.,XNXJX@X6X=.qXXXQ I oXXX$ } ",
"l.0.t.< n.'.W   DXdX5 h LXaXp 0.zX6X5.iX3XrXtXL.D.pXuX9.<XpX>Xi.NX0X0XqXqXqXqXqXVX`.uXtX0XpXuXP.K.'.jXH :XSXr.f iXoXl.| 8X3X7.B.",
"1 tXR.  +.DXk.( G.5.7X~.g.7.CXtX2 ,XAXr.V rXpX6.m.FXfXu.nXqXtXbXBX~.0XNX0X(.qXqX4XY.qXtXrXAXiXP.7XqXDX$X3XH.^.dXR.j gX'.U z pXXX",
"t.q h fXV.  4.oXE . yXBXm A DXuX%.K.-XeXR.mX%.sXiX9.4.fXaX:.<XfX/.Q.0XDX/.8XtXqX(.aXtX XBXqX>XDXOXy.w.FXdXH -XjXU./ gX).6.=XD.0.",
"eX* 2 R.*Xx 7.l.y.{.y.L ).lXm L SXtX1 y.oX#XE fXHX=X-X].eX<XdX:X/.tX0XH.iXaXtXE.NXqX0X0XqXqX0X(.`.8X,X{.0XzXrX' Q.HXi.e fXFXV w ",
"3 J.).@ t '.S.  O.LXT . ZXuX;.b.7X$XU.dXf.:XOX%XY ^.iX3.y.fXAX6.4XHXiXR.CXNX(.tX^.NXqXiXqXqXqXqX&XpXpX#Xq.fXfX%.E.dX9Xp.4X8.9XNX",
"  ' P.v L 7.7.+X$Xy n.fX) $ dXoXe l FX0Xb @XoX>X3.DXbX,X0XcX:XAXyXe.T.iXqXi.<XAX/.0XqXiX0XqXiXqXVXqXqXdXdXL.L.KXAXh B.LXv.2 wXfX",
"aXu + I.FX  % FXL.  -..Xy.P -X#XU.>Xh.n.HXrXl N.SXm.V qXSX3.b.FXiXJ.3XBXiX0XkX/.NXqX0X0XqXqX0XqX(.0X3X(.sXK.y.DXqXH.0Xw.CX_.P.L ",
"n.M w  .C 7.y.q U  XK.  4.GXO.  dXFXf ) SXW.X.wX<XeX8XVX8.iXfX0.e.fXBX5.<XfX/.J.BXqX/.0XqXqXNX(.rX).iX0X&XfXfXw.8.pXfXk N.pX,Xc ",
"  B GX4 - L.zX% r R.K.b <.b.+XI.t.h dXBXC O.FXBX9 i.SXi.U fX_.-X<X0XqX>XdXW.0XdX8X0XqXqX0XqXqXqXBXNXqXdXNX0XiX,XvX~.2XjX X` rXOX",
"< g l G f.I , P.0X  8 zXJ.o -.DXj.$ KXHXX.c.E.<X&X<X{ vXzX2XK dXpX4.K.iXqXu.3XqX/.0X0XqX0X0XqXqX).dXrX).`.<XT.iXpX=X-.BXGX! ;X(.",
"kX#.O Z SX8 . M.,Xb G 7.v.;.w.~ 6.fXo., aXLXd P lXeXf -X'.,Xt.qX3XqXNXcX8XiXdXG.NX8X/./.qXqXNXqX0XiXqX0XCXqX/.3XR.(.pX#Xy.pXAXb ",
"m i D ! = W .Xz . !.FX. @ AXY.+ 4.iXV.b |.2X-X:Xc.0.pXyXL 5XfXN.W (.uXs.M.FXiXT./.qXiXqXqX0XNXyX0X(.qX/.qX0XqXqXK./.FXJ.i.iXBX#X",
"+ + ~.J   B @XH 2 b.} 7.=XZ h sXm.+ t.DX+.. iXLXj K fXzX{ E.Y.`.W.3X*XBXpXF.B.iXqXF.<XDXR.8XlX0XqXNXqXqXqXqXqXqXBX6X$X(.DX8.%.pX",
"i E % 1 &XJ   P GX- @ U.sX$ u FXI.v J.%X%X;X#XH fXFXP W AXNXf m.fXM.+. XsXK.2XHXqX8X0X,XqX8X<XE.0XqXBXqXqXqXqXqXNX0XK.dXqX,X9XqX",
"4.8.O   5.@., ( W X.+.! q -XiXX s AXi.O %.LX .2 .XDX$.:.].BX$XtXn.<XSXI.k.fXuX4.6.LXdXq.rXFXqXqXNXqXqX0XqXqXqXqXrXiX`.3Xt.BXFX&.",
"  . Y <.+ . fXJ . B lXd   J.VXj Z n.M.e.U.f :XpXz.w JXGXd L PXqXB H.`.R.b.NX0X<XdXR.qXsX0XK.<XBXqX0XqXqXqXqXqXqXW.DXaXqX0XCX>XsX",
"O O G W = 7 H g J ^ . J AXn   (.GX+ 3 SX{.O 7.LXp.A 1XT.,XrXr.w.sX0XT nXSXF.g.`.KX3.i.fXdXQ.qXdX0X(.qX0X0XqX(.0XqXCX0XY.pX,X:.iX",
"% j.  O *.q.$ + dXU o Z 0XE y <.[ _ i.R S PXP., q.FXl.$ BXGXZ f.lXdX*.&X/.sXhX).H.DXtXF.,XfXdX,.qX0XqX/.qXqXqXqXqX(.qX0XCXfXiXBX",
"3 '   O f s x L , s $X..  @.FXp O K.pX+ w fX,X9 M.2X>X%X1X,..XlXQ 4.uXiXv J.oXN.{ aXkXe.cXyXiXvXBXBXqXqX0XqXqXqX0XqXiXiX,XE.dX0X"
};
